<?xml version="1.0" encoding="UTF-8"?>
<svg id="Ebene_2" data-name="Ebene 2" xmlns="http://www.w3.org/2000/svg" viewBox="0 0 623.85 407.21">
  <defs>
    <style>
      .cls-1 {
        fill: #fff;
      }

      .cls-2 {
        fill: #ce2e26;
      }

      .cls-3 {
        fill: #f1d247;
      }
    </style>
  </defs>
  <g id="Ebene_1-2" data-name="Ebene 1">
    <g>
      <path class="cls-1" d="M340.66,376.63c-.44-.03-1.3-.67-1.99-.46-1.54-2.61,2.4-1.8,2.45-4.42.08-3.89-5.33-.29-3.69,2.11l-1.41-1.15c.94-1.11,2.96-4.81,4.12-5.07.74-.16,1.71.67,2.36-.48l-4.15-4.83c2.35-.02,2.6,3.38,5.2,2.69,3.32-.88-.82-2.67-1.3-3.13-2.46-2.36,3.34-2.66,1.65-5.23-.6-.91-6.41-1.39.46-3.8.09-3.43-4.07-1.98-3.26-4.58,3.42-1.16,4.21-1.16,1.65-4.39-1.41.69-2.29,1.59-2.59,3.16-1.39.41-1.55-.32-1.8-1.56,2.41.54,2.77-1.98,3.83-3.33.24-.3.97-.4,1.25-.8.56-.82,2.53-4.1,1.84-4.86l-1.77.54-.3,1.77c-1.6.29-1.76-1.08-1.61-2.31l1.38.28c.59-2.19,2.81-3.12,2.33-5.53-.14-.47-2.51-.11-1.9-2.34.11-.38,2.36-.29,2.35-1.86-.01-1.26-2.63-2.3-2.79-3.68l2.32-.7c.69-2.48-1.06-2.49-1.7-3.38-.37-.52-.39-1.2-1.04-1.96-.49-.59-3.43-1.91-1.2-2.5,1.12,1.25,1.92,3.42,3.92,3.22.69-3.02-1-3.61-2.31-5.76l2.31.23c.28-2.25-.02-3.5-1.84-4.85l.5-.9,1.28-.31.1-.6c.54-3.31-1.91-2.8-1.88-4.63l1.85-.23c.66-2.67-.89-2.69-1.85-4.61l1.85.69c-.45-3.18,1.03-7.59-.92-10.15l.96-.88c-.37-5.76.35-11.86-.03-17.58-.07-1.1-.8-1.8-.85-2.37-.03-.39.86-5.66.86-7.28.11-50.42.46-100.91,0-151.32-.02-1.92.1-4.28.03-5.99-.05-1.26-.94-2.21-.89-2.68.19-2.08.94-5,.87-7.44-.04-1.2-.93-2.32-.91-3.25.02-.87.91-1.63.91-2.76s-.93-1.93-.93-2.77.96-1.66.94-2.78c-.02-1.06-.96-1.66-.96-2.3,0-.57.76-1.14.9-1.86.59-3.06-.92-3.04-.93-3.22-.02-.62.81-1.43.93-2.31.6-4.78-.9-8,2.13-12.63,5.19-7.95,19.43-21.05,26.71-28.17,4.09-4,18.94-18.91,23.19-20.16,67.82-1.37,135.86-.17,203.76-.6,6.41.56,12.13,6.31,12.68,12.69.73,8.56-.11,18.91-.03,27.72.12,12.65-.03,25.49.26,37.78.07,2.91.56,5.97.22,9.01l.93.22c-2.16.99-.92,3.74-.91,5.52.36,41.13-.69,82.7-.51,124.11.05,11.64,0,23.53.48,35.04.08,1.91-.73,5.38.93,5.99l-.02.68c-2.51,1.29-.92,7.15-.89,9.9.08,5.93-.63,12.17-.44,17.96.04,1.22,1.17,2.94,1.16,3.28-.02,1.16-2.37,4,.64,5.07l-1.35.25c.03,2.18-.79,5.76,2.28,5.05v2.3s-1.85-.46-1.85-.46c.06.74-.46,4.97.92,4.38,1.3-1.06,1.71-1.82,1.61-3.46,1.93.11,1.66,1.79,2.21,2.2.24.18.92,0,1.13.19.23.22.71,2.33,1.05,2.9l-2.31-.22-.07-2c-.51-1.67-3.05-.33-2.65,1.23.3,1.16,3.23,1.1,2.72,3.54-2.12-.23-1.55-1.12-2.29-2.07-2.55-3.31-3.92,1.37-1.85,2.33l1.84-.26c-1.18,1.74.33,4.22,2.3,3.23-1.3,2.42,1.61,2.52,2.3,4.39.43,1.17-1.72.57-2.3.68,1.25-2.58-2.06-3.83-2.33-1.13-.13,1.35,5.17,5.24,4.17,6.2-1.08,1.03-2.46-1.86-2.31-2.77l-1.84.46c.87-1.87-1.08-2.77-2.77-2.76v3.23c3.01-.5,1.85.53,2.74,1.61,2.14,2.6,5.07,4.66,6.48,7.83-1.07.02-1.66-1.52-2.37-2.26-.54-.56-1.93-.23-1.79-2.58-.87-.61-3.5,1.59-2.56,2.78,2.44.94,1.71,1.55,2.61,2.94.62.95,2.42,1.15,2.26,2.59l-1.77-.07-1.23-2.23-1.86,1.39c.3,2.19,3.46,1.08,2.48,3.62-3.24.61-3.68,3.31.05,3.32l.02,2.29-2.24-.07c-.8-3.4-3.6-2.86-2.3.47,2.42-.32,1.44.85,2.41,1.95.66.74,1.66.68,1.99,1.01.43.43,1.52,3.13,2.44,3.79-1.76,1.01-2.14-1.86-2.38-2.02-.39-.25-1.31.12-1.7-.12-.22-.14-2.13-5.21-2.8-.21.35,1.01,1.89.73,2.73.74l.05,2.72c2.35-.29,1.46.54,2.24,1.65s1.65,2.08,2.31,3.24c-1.78.72-3.05-1.5-2.77-3-1.33-.46-3.13,1.73-2.57,2.77.45.83,1.58.7,1.98,1.04.47.41.39,1.57,1.05,1.96.56.33,1.68.11,1.82.25.12.13-.07,1.52.26,2.27.36.83,1.8,1.33,2.07,2.31-.71.66-4.53-3.93-5.04-4.39-.47-.42-3.91-3.29-4.18-2.98-.63,3.54.69,2.33,1.73,3.34.77.75.71,3.45,2.88,2.19-.59,2.98,3.19,2.97,3.23,5.54-.79.8-3.76-2.09-3.23-3.23l-1.83.47c-.26-3.24-3.45-3.8-3.2-.04l2.7.53.22,2.32,2.07.47.48,2.06,1.85.22c-.32,2.3.66,2.75,2.32,3.9-.85,1.36-1.83-.6-2.53-1.17-.43-.35-1.26-.32-1.49-.56-.97-.99.72-2.32-2.89-2.65.03-1.71-1.28-3.25-2.76-1.61-.01,2.61,1.94,1.53,2.76,1.61-.03,1.84-1.4,4.44,2.3,3.23.49,2.3-1.26,2.21-2.76,3.23l-.07-2.69c-1.49-.95-2.6-.36-2.26,1.54.19,1.1,2.68,1.96,2.33,3.93l1.84-.47.47,2.77h-2.29c.59-3.25-3.34-1.57-3.71-4.61-.97.38-1.55,1.25-1.37,2.3,2.4.17,2.63.96,2.77,3.24l1.84-.46.06,2.72,1.7.11c1.21,5.03-2.08-.73-4.07-.07l.28-1.38-4.19-2.76c-.55.5-.89.58-.47,1.38.33.62,3.05,4.11,3.93,3.22l.2,2.35,1.65.43-1.38,1.38c-.27-2.77-2.62-1.71-2.76-1.85-.11-.11.03-1.57-.93-2.09-1.64-.88-2.51,1.39-2.28,2.72.56,1.16,1.34.68,2.26.3-.31,1.74.37,2.48,1.39,3.68-.68.15-.86,0-1.35-.32-1.19-.76-2.41-1.67-3.06-2.93-2.17-.36-2.15,3.12-2.78,3.28l-1.5-.1c-1.37-5.93-7.02.08-1.01.56l.02,2.75h2.31c-.97,3.32-2.14.29-2.92-.31-1.14-.88-3.25-2.12-4.33-3.04-.69-.59-.47-2.85-2.62-2.14-1.01.33-.74,1.91-.74,2.73l2.76-.46-.49,2.73-2.21-.04c-.39-4.37-4.97-2-3.33.33.61.87,2.67,1.02,1.65,2.51-1.39-.08-1.6-2.07-2.54-2.54-.55-.28-1.6-.11-1.78-.28-.18-.18,0-1.25-.28-1.78-.66-1.25-2.44-.19-2.35-2.82-1.98-.86-3.73.71-3.42,2.82-.98-.3-1.79-.14-2.77,0,.02,5.1-4.92.74-2.96.46,1.05.17,2.02-.34,2.96-.46,0-3.14-1.06-1.92-2.26-3.04-1.6-1.51-3.1-4.89-4.2-.19l3.17.53.06,2.71-3.16-.53-.06-2.25-2.49-.02c-.46,3.1-1.74,1.79-3.1,2.98s-.05,2.47-3.18,2.12c.38-.72.08-1.18,0-1.84,2.36.41,4.47-2.39,2.3-3.46-2.92-1.45-2.49,1.93-2.3,3.46-.97-.17-1.79-1.53-3.22-.46l-.06-2.25c-3.59-.15-2.25-1.64-3.38-2.84-1.48-1.56-3.31.57-3.01,2.32l2.81.22c.24,2.34.42,3.37,3.19,3.01v2.31c-.66-.34-1.53-.48-2.1-.91-1.15-.88-3.25-3.53-4.39-4.37-1.44-1.06-2.55-.06-3.02-3.05l-2.49.03c-.82,2.71,2.24,2.21,2.68,2.86.57.83.31,2.8,2.64,3.58l3.44,4.17-4.58-3.03c-.89-1.01-1.4-2.64-3-2.52-.74.06-1.19.79-1.64.93.5-2.7,2.11-3.89-2.7-3.62-1.34,2.28.16,4.46,2.7,3.62-.21,1.16.58,2.54-1.53,1.85-.48-.16-1.68-3.24-3.68-2.72-1.26.33-2.16,4.38-4.92,2.69.62-.8-.03-1.69-.01-2.29.75.29,1.21,1.29,2.46.88l1.69-2.93c-2.39-1.68-4.04-.82-4.15,2.05-.8-.31-1.38-.8-2.3-.24-.99.6-1.17,3.35-2.07,3-1.2-.46-3.75-4.46-4.51-4.94-1.75-1.1-2.62.61-3.38-3.37l-1.5.55-.07,2.69c2.93-.74,1.67,3.34,5.05,2.79l.02,2.28c-2.4.26-1.95-.99-2.75-2.06-2.45-3.29-2.55,1.95-4.47,2-1.06.03-1.45-1.43-1.54-2.24,2.04.37,3.09.24,3.68-2.05-2.33-1.68-4.02-.94-3.68,2.05-3.58-.65-1.64-2.3-4.61-3.23l-.44,2.47,2.26.77v2.29c-.47-.33-1.36-.32-1.7-.59-.72-.57-.56-2.84-1.75-2.65-1.44.36-1.95,2.42-2.07,3.71-1.99.35-2.45-3.16-3.01-3.25-2.1-.36-1.96,3.55-3.66,2.78l-1.9-3.25c-1.74-.28-2.72,2.36-2.5,3.72-2.47-.13-1.7-2.68-3.89-3.23-1.05.33-1.39,3.5-2.3,3.2-2.28-.76-1.62-4.06-3.7-3.69-.76,1.18-1.91,2.16-1.64,3.72-2.59-.24-1.62-2.38-3.45-3.68-.19,0-1.96,2.28-2.02,2.61-.11.73,1.18,1.14.63,1.53-2.34-.71-2.49-2.43-3.69-4.16-.81-.18-2.86,2.22-2.53,3.23-2.69.08-1.4-3.39-4.61-2.77.14-5.57-5.93-1.15-1.69.59,1.05.43,1.17-.49,1.69-.59,0,.35-.55,2.79-.69,2.76-2.17-.52-1.3-1.26-2.26-2.34-.63-.71-1.54-.71-2.08-1.16-1.77-1.44-.28-1.9-3.73-2.03-.17-.78.05-1.55-.91-2.09-1.87-.97-2.58,1.53-.92,2.34.72.35,1.35-.27,1.83-.25.19.91-.04,2.21.47,3.23l1.84-.46v2.31s-1.78-.06-1.78-.06c.09-2.29-1.88-2.13-2.7-2.83-1.07-.92-2.22-5.79-3.38.11-3.06.93-2.69-2.66-5.27-2.75-1.35.97-.49,2.44-.25,3.69,1.38.11,1.6-.89,2.77-.92l-.47,3.22-2.28-.48c-.16-.58.08-1.28-.02-1.82-1.02-.08-1.52-.93-3.23-.92-.03-1.62-.32-3.21-2.32-2.56-.73.68-1.04,1.85-.23,2.57,1.05.93,1.66,0,2.55,0,.01.51-.72,1.67,0,2.77-3.99-.44-1.39-3.37-5.99-2.77l.42-2.26c-.9-.35-2.8-.98-3.45-.07-.56,3.28.98,2.6,3.03,2.34l-.68,2.76c-2.3-1.14-2.32-3.4-4.85-3.22.23-3.16-4.22-3.94-3.65-.04,1.44,1.01,2.62.11,3.65.04-.05.66-.78,2.36-1.62,2.35-1.89.22-1.77-3.63-4.63-1.91-2.52,1.52.54,4.01,2.56,3.72-.84,2.28-4.04-1.18-5.07-2.08-1.16-1.01-.99-2.69-3.69-2.08v-2.77c.38.01.78-.04,1.16-.02,2.19.14,1.24,1.1,1.72,2.44.85,2.37,3.76.72,3.05-1.44l-3.17-1.67,1.84-1.62-.74-.86c-1.66-.31-5.79,4.08-7.36,5.02-1.06,2.15,4.51,1.34,2.32,3.69l-3.69-2.31c-1.32-.01-2,3.11-3.91,2.78-.03-2.33-1.48-3.68-3.69-2.77l.02-2.28,2.74-.49c.18-1.11-.46-2.14-1.61-2.31-1.27-.19-.73,1.68-1.27,2.21-.33.33-1.62.23-2.21.78-1.31,1.23.1,3.55,1.86,2.55-.34,2.26.85,3.92,3.23,3.7-1.68,2.92-5.31-3.48-6.9-3.98-1.46-.46-1.66.61-2.32.75.35-1.25,1.96-2.91-.25-3.25-3.4-.53-3.19,4,.25,3.25-.14.49.31,1.56-.22,1.84-1.2.16-3.06-2.72-3.31-2.77-3.39-.6-2.6,4.38.77,3.7-.72,2.9-2.05.28-3.26-.68-.78-.62-2.64-2.39-2.94-2.58-1.62-1.04-2.68.31-2.57-2.74,1.07-.18,2.14-.44,3.23-.46.9-.9-3.05-4.51-3.23.46-.73.12-1.67-.18-2.45.07l-.8,1.08c.33,1.49,1.86,1.93,3.19,2.13l.06,1.79c-2.34.85-2.7-2.77-4.38-2.78-2.17-.01-.34,3.41-4.14,3.25-1.73-3,4.66-2.14,2.56-4.88-2.38-3.1-3.21,2.05-3.54,2.13l-2.48-.03-.48-3.21c-4.31-.09-3.98,4.91.01,3.67l.23,2.32c-2.17.16-2.39-1.28-3.2-1.86-.67-.48-1.6-.74-2.08-1.16-.73-.64-2.37-3.82-3.67-2.02-1.59,2.21,4.51,2.89,2.49,5.5l-1.98-.56c-.83-6.83-4.9,1.81-6.08.56l-.46-2.3c2.86.76,2.89-1.01,3.23-3.23.64-.06,1.66.21,2.1-.43l.2-2.79c-2.68.24-2.04,1.47-2.3,3.23-.76.07-1.76-.18-2.46.06-1.09.38-.9,2.38-1.29,2.64s-1.62-.01-2.24.06c.1-.36.09-1.42-.1-1.74-1.5-.36-2.56-2.61-3.59-3.13-1.39-.7-2.59,2.04-1.4,2.82,3.38-.48,1.8,2.07,3.08,2.48.55.18,1.42-.36,2.02-.43-.12.44-.99.93-.88,1.55.13.72,2.21,2.41,3.18,2.15l-.69.91c-2.11-1.62-4.37-2.96-6.46-4.6-2.71-2.13-6.17-4.64-8.77-6.91-1.73-1.51-2.4-4.88-5.74-4.61l-.44,1.63-2.34.21v-2.31s2.77,0,2.77,0l.02-1.55c-3.19-.43-2.36-5.46-5.57-3.76-.98.52-.58,2.57-2.75,2.55v-2.31c3.06.59,1.77-3.68,5.51-3.71-.05-2.46-2.45-2.01-2.74-5.05,3.71.25,3.11-3.38,1.6-3.68-1.4-.28-1.69,2.71-1.6,3.68Z"/>
      <g>
        <path d="M340.67,376.54c-.44-.03-1.3-.67-1.99-.46-1.54-2.61,2.4-1.8,2.45-4.42.08-3.89-5.33-.29-3.69,2.11l-1.41-1.15c.94-1.11,2.96-4.81,4.12-5.07.74-.16,1.71.67,2.36-.48l-4.15-4.83c2.35-.02,2.6,3.38,5.2,2.69,3.32-.88-.82-2.67-1.3-3.13-2.46-2.36,3.34-2.66,1.65-5.23-.6-.91-6.41-1.39.46-3.8.09-3.43-4.07-1.98-3.26-4.58,3.42-1.16,4.21-1.16,1.65-4.39-1.41.69-2.29,1.59-2.59,3.16-1.39.41-1.55-.32-1.8-1.56,2.41.54,2.77-1.98,3.83-3.33.24-.3.97-.4,1.25-.8.56-.82,2.53-4.1,1.84-4.86l-1.77.54-.3,1.77c-1.6.29-1.76-1.08-1.61-2.31l1.38.28c.59-2.19,2.81-3.12,2.33-5.53-.14-.47-2.51-.11-1.9-2.34.11-.38,2.36-.29,2.35-1.86-.01-1.26-2.63-2.3-2.79-3.68l2.32-.7c.69-2.48-1.06-2.49-1.7-3.38-.37-.52-.39-1.2-1.04-1.96-.49-.59-3.43-1.91-1.2-2.5,1.12,1.25,1.92,3.42,3.92,3.22.69-3.02-1-3.61-2.31-5.76l2.31.23c.28-2.25-.02-3.5-1.84-4.85l.5-.9,1.28-.31.1-.6c.54-3.31-1.91-2.8-1.88-4.63l1.85-.23c.66-2.67-.89-2.69-1.85-4.61l1.85.69c-.45-3.18,1.03-7.59-.92-10.15l.96-.88c-.37-5.76.35-11.86-.03-17.58-.07-1.1-.8-1.8-.85-2.37-.03-.39.86-5.66.86-7.28.11-50.42.46-100.91,0-151.32-.02-1.92.1-4.28.03-5.99-.05-1.26-.94-2.21-.89-2.68.19-2.08.94-5,.87-7.44-.04-1.2-.93-2.32-.91-3.25.02-.87.91-1.63.91-2.76s-.93-1.93-.93-2.77.96-1.66.94-2.78c-.02-1.06-.96-1.66-.96-2.3,0-.57.76-1.14.9-1.86.59-3.06-.92-3.04-.93-3.22-.02-.62.81-1.43.93-2.31.6-4.78-.9-8,2.13-12.63,5.19-7.95,19.43-21.05,26.71-28.17,4.09-4,18.94-18.91,23.19-20.16,67.82-1.37,135.86-.17,203.76-.6,6.41.56,12.13,6.31,12.68,12.69.73,8.56-.11,18.91-.03,27.72.12,12.65-.03,25.49.26,37.78.07,2.91.56,5.97.22,9.01l.93.22c-2.16.99-.92,3.74-.91,5.52.36,41.13-.69,82.7-.51,124.11.05,11.64,0,23.53.48,35.04.08,1.91-.73,5.38.93,5.99l-.02.68c-2.51,1.29-.92,7.15-.89,9.9.08,5.93-.63,12.17-.44,17.96.04,1.22,1.17,2.94,1.16,3.28-.02,1.16-2.37,4,.64,5.07l-1.35.25c.03,2.18-.79,5.76,2.28,5.05v2.3s-1.85-.46-1.85-.46c.06.74-.46,4.97.92,4.38,1.3-1.06,1.71-1.82,1.61-3.46,1.93.11,1.66,1.79,2.21,2.2.24.18.92,0,1.13.19.23.22.71,2.33,1.05,2.9l-2.31-.22-.07-2c-.51-1.67-3.05-.33-2.65,1.23.3,1.16,3.23,1.1,2.72,3.54-2.12-.23-1.55-1.12-2.29-2.07-2.55-3.31-3.92,1.37-1.85,2.33l1.84-.26c-1.18,1.74.33,4.22,2.3,3.23-1.3,2.42,1.61,2.52,2.3,4.39.43,1.17-1.72.57-2.3.68,1.25-2.58-2.06-3.83-2.33-1.13-.13,1.35,5.17,5.24,4.17,6.2-1.08,1.03-2.46-1.86-2.31-2.77l-1.84.46c.87-1.87-1.08-2.77-2.77-2.76v3.23c3.01-.5,1.85.53,2.74,1.61,2.14,2.6,5.07,4.66,6.48,7.83-1.07.02-1.66-1.52-2.37-2.26-.54-.56-1.93-.23-1.79-2.58-.87-.61-3.5,1.59-2.56,2.78,2.44.94,1.71,1.55,2.61,2.94.62.95,2.42,1.15,2.26,2.59l-1.77-.07-1.23-2.23-1.86,1.39c.3,2.19,3.46,1.08,2.48,3.62-3.24.61-3.68,3.31.05,3.32l.02,2.29-2.24-.07c-.8-3.4-3.6-2.86-2.3.47,2.42-.32,1.44.85,2.41,1.95.66.74,1.66.68,1.99,1.01.43.43,1.52,3.13,2.44,3.79-1.76,1.01-2.14-1.86-2.38-2.02-.39-.25-1.31.12-1.7-.12-.22-.14-2.13-5.21-2.8-.21.35,1.01,1.89.73,2.73.74l.05,2.72c2.35-.29,1.46.54,2.24,1.65s1.65,2.08,2.31,3.24c-1.78.72-3.05-1.5-2.77-3-1.33-.46-3.13,1.73-2.57,2.77.45.83,1.58.7,1.98,1.04.47.41.39,1.57,1.05,1.96.56.33,1.68.11,1.82.25.12.13-.07,1.52.26,2.27.36.83,1.8,1.33,2.07,2.31-.71.66-4.53-3.93-5.04-4.39-.47-.42-3.91-3.29-4.18-2.98-.63,3.54.69,2.33,1.73,3.34.77.75.71,3.45,2.88,2.19-.59,2.98,3.19,2.97,3.23,5.54-.79.8-3.76-2.09-3.23-3.23l-1.83.47c-.26-3.24-3.45-3.8-3.2-.04l2.7.53.22,2.32,2.07.47.48,2.06,1.85.22c-.32,2.3.66,2.75,2.32,3.9-.85,1.36-1.83-.6-2.53-1.17-.43-.35-1.26-.32-1.49-.56-.97-.99.72-2.32-2.89-2.65.03-1.71-1.28-3.25-2.76-1.61-.01,2.61,1.94,1.53,2.76,1.61-.03,1.84-1.4,4.44,2.3,3.23.49,2.3-1.26,2.21-2.76,3.23l-.07-2.69c-1.49-.95-2.6-.36-2.26,1.54.19,1.1,2.68,1.96,2.33,3.93l1.84-.47.47,2.77h-2.29c.59-3.25-3.34-1.57-3.71-4.61-.97.38-1.55,1.25-1.37,2.3,2.4.17,2.63.96,2.77,3.24l1.84-.46.06,2.72,1.7.11c1.21,5.03-2.08-.73-4.07-.07l.28-1.38-4.19-2.76c-.55.5-.89.58-.47,1.38.33.62,3.05,4.11,3.93,3.22l.2,2.35,1.65.43-1.38,1.38c-.27-2.77-2.62-1.71-2.76-1.85-.11-.11.03-1.57-.93-2.09-1.64-.88-2.51,1.39-2.28,2.72.56,1.16,1.34.68,2.26.3-.31,1.74.37,2.48,1.39,3.68-.68.15-.86,0-1.35-.32-1.19-.76-2.41-1.67-3.06-2.93-2.17-.36-2.15,3.12-2.78,3.28l-1.5-.1c-1.37-5.93-7.02.08-1.01.56l.02,2.75h2.31c-.97,3.32-2.14.29-2.92-.31-1.14-.88-3.25-2.12-4.33-3.04-.69-.59-.47-2.85-2.62-2.14-1.01.33-.74,1.91-.74,2.73l2.76-.46-.49,2.73-2.21-.04c-.39-4.37-4.97-2-3.33.33.61.87,2.67,1.02,1.65,2.51-1.39-.08-1.6-2.07-2.54-2.54-.55-.28-1.6-.11-1.78-.28-.18-.18,0-1.25-.28-1.78-.66-1.25-2.44-.19-2.35-2.82-1.98-.86-3.73.71-3.42,2.82-.98-.3-1.79-.14-2.77,0,.02,5.1-4.92.74-2.96.46,1.05.17,2.02-.34,2.96-.46,0-3.14-1.06-1.92-2.26-3.04-1.6-1.51-3.1-4.89-4.2-.19l3.17.53.06,2.71-3.16-.53-.06-2.25-2.49-.02c-.46,3.1-1.74,1.79-3.1,2.98s-.05,2.47-3.18,2.12c.38-.72.08-1.18,0-1.84,2.36.41,4.47-2.39,2.3-3.46-2.92-1.45-2.49,1.93-2.3,3.46-.97-.17-1.79-1.53-3.22-.46l-.06-2.25c-3.59-.15-2.25-1.64-3.38-2.84-1.48-1.56-3.31.57-3.01,2.32l2.81.22c.24,2.34.42,3.37,3.19,3.01v2.31c-.66-.34-1.53-.48-2.1-.91-1.15-.88-3.25-3.53-4.39-4.37-1.44-1.06-2.55-.06-3.02-3.05l-2.49.03c-.82,2.71,2.24,2.21,2.68,2.86.57.83.31,2.8,2.64,3.58l3.44,4.17-4.58-3.03c-.89-1.01-1.4-2.64-3-2.52-.74.06-1.19.79-1.64.93.5-2.7,2.11-3.89-2.7-3.62-1.34,2.28.16,4.46,2.7,3.62-.21,1.16.58,2.54-1.53,1.85-.48-.16-1.68-3.24-3.68-2.72-1.26.33-2.16,4.38-4.92,2.69.62-.8-.03-1.69-.01-2.29.75.29,1.21,1.29,2.46.88l1.69-2.93c-2.39-1.68-4.04-.82-4.15,2.05-.8-.31-1.38-.8-2.3-.24-.99.6-1.17,3.35-2.07,3-1.2-.46-3.75-4.46-4.51-4.94-1.75-1.1-2.62.61-3.38-3.37l-1.5.55-.07,2.69c2.93-.74,1.67,3.34,5.05,2.79l.02,2.28c-2.4.26-1.95-.99-2.75-2.06-2.45-3.29-2.55,1.95-4.47,2-1.06.03-1.45-1.43-1.54-2.24,2.04.37,3.09.24,3.68-2.05-2.33-1.68-4.02-.94-3.68,2.05-3.58-.65-1.64-2.3-4.61-3.23l-.44,2.47,2.26.77v2.29c-.47-.33-1.36-.32-1.7-.59-.72-.57-.56-2.84-1.75-2.65-1.44.36-1.95,2.42-2.07,3.71-1.99.35-2.45-3.16-3.01-3.25-2.1-.36-1.96,3.55-3.66,2.78l-1.9-3.25c-1.74-.28-2.72,2.36-2.5,3.72-2.47-.13-1.7-2.68-3.89-3.23-1.05.33-1.39,3.5-2.3,3.2-2.28-.76-1.62-4.06-3.7-3.69-.76,1.18-1.91,2.16-1.64,3.72-2.59-.24-1.62-2.38-3.45-3.68-.19,0-1.96,2.28-2.02,2.61-.11.73,1.18,1.14.63,1.53-2.34-.71-2.49-2.43-3.69-4.16-.81-.18-2.86,2.22-2.53,3.23-2.69.08-1.4-3.39-4.61-2.77.14-5.57-5.93-1.15-1.69.59,1.05.43,1.17-.49,1.69-.59,0,.35-.55,2.79-.69,2.76-2.17-.52-1.3-1.26-2.26-2.34-.63-.71-1.54-.71-2.08-1.16-1.77-1.44-.28-1.9-3.73-2.03-.17-.78.05-1.55-.91-2.09-1.87-.97-2.58,1.53-.92,2.34.72.35,1.35-.27,1.83-.25.19.91-.04,2.21.47,3.23l1.84-.46v2.31s-1.78-.06-1.78-.06c.09-2.29-1.88-2.13-2.7-2.83-1.07-.92-2.22-5.79-3.38.11-3.06.93-2.69-2.66-5.27-2.75-1.35.97-.49,2.44-.25,3.69,1.38.11,1.6-.89,2.77-.92l-.47,3.22-2.28-.48c-.16-.58.08-1.28-.02-1.82-1.02-.08-1.52-.93-3.23-.92-.03-1.62-.32-3.21-2.32-2.56-.73.68-1.04,1.85-.23,2.57,1.05.93,1.66,0,2.55,0,.01.51-.72,1.67,0,2.77-3.99-.44-1.39-3.37-5.99-2.77l.42-2.26c-.9-.35-2.8-.98-3.45-.07-.56,3.28.98,2.6,3.03,2.34l-.68,2.76c-2.3-1.14-2.32-3.4-4.85-3.22.23-3.16-4.22-3.94-3.65-.04,1.44,1.01,2.62.11,3.65.04-.05.66-.78,2.36-1.62,2.35-1.89.22-1.77-3.63-4.63-1.91-2.52,1.52.54,4.01,2.56,3.72-.84,2.28-4.04-1.18-5.07-2.08-1.16-1.01-.99-2.69-3.69-2.08v-2.77c.38.01.78-.04,1.16-.02,2.19.14,1.24,1.1,1.72,2.44.85,2.37,3.76.72,3.05-1.44l-3.17-1.67,1.84-1.62-.74-.86c-1.66-.31-5.79,4.08-7.36,5.02-1.06,2.15,4.51,1.34,2.32,3.69l-3.69-2.31c-1.32-.01-2,3.11-3.91,2.78-.03-2.33-1.48-3.68-3.69-2.77l.02-2.28,2.74-.49c.18-1.11-.46-2.14-1.61-2.31-1.27-.19-.73,1.68-1.27,2.21-.33.33-1.62.23-2.21.78-1.31,1.23.1,3.55,1.86,2.55-.34,2.26.85,3.92,3.23,3.7-1.68,2.92-5.31-3.48-6.9-3.98-1.46-.46-1.66.61-2.32.75.35-1.25,1.96-2.91-.25-3.25-3.4-.53-3.19,4,.25,3.25-.14.49.31,1.56-.22,1.84-1.2.16-3.06-2.72-3.31-2.77-3.39-.6-2.6,4.38.77,3.7-.72,2.9-2.05.28-3.26-.68-.78-.62-2.64-2.39-2.94-2.58-1.62-1.04-2.68.31-2.57-2.74,1.07-.18,2.14-.44,3.23-.46.9-.9-3.05-4.51-3.23.46-.73.12-1.67-.18-2.45.07l-.8,1.08c.33,1.49,1.86,1.93,3.19,2.13l.06,1.79c-2.34.85-2.7-2.77-4.38-2.78-2.17-.01-.34,3.41-4.14,3.25-1.73-3,4.66-2.14,2.56-4.88-2.38-3.1-3.21,2.05-3.54,2.13l-2.48-.03-.48-3.21c-4.31-.09-3.98,4.91.01,3.67l.23,2.32c-2.17.16-2.39-1.28-3.2-1.86-.67-.48-1.6-.74-2.08-1.16-.73-.64-2.37-3.82-3.67-2.02-1.59,2.21,4.51,2.89,2.49,5.5l-1.98-.56c-.83-6.83-4.9,1.81-6.08.56l-.46-2.3c2.86.76,2.89-1.01,3.23-3.23.64-.06,1.66.21,2.1-.43l.2-2.79c-2.68.24-2.04,1.47-2.3,3.23-.76.07-1.76-.18-2.46.06-1.09.38-.9,2.38-1.29,2.64s-1.62-.01-2.24.06c.1-.36.09-1.42-.1-1.74-1.5-.36-2.56-2.61-3.59-3.13-1.39-.7-2.59,2.04-1.4,2.82,3.38-.48,1.8,2.07,3.08,2.48.55.18,1.42-.36,2.02-.43-.12.44-.99.93-.88,1.55.13.72,2.21,2.41,3.18,2.15l-.69.91c-2.11-1.62-4.37-2.96-6.46-4.6-2.71-2.13-6.17-4.64-8.77-6.91-1.73-1.51-2.4-4.88-5.74-4.61l-.44,1.63-2.34.21v-2.31s2.77,0,2.77,0l.02-1.55c-3.19-.43-2.36-5.46-5.57-3.76-.98.52-.58,2.57-2.75,2.55v-2.31c3.06.59,1.77-3.68,5.51-3.71-.05-2.46-2.45-2.01-2.74-5.05,3.71.25,3.11-3.38,1.6-3.68-1.4-.28-1.69,2.71-1.6,3.68ZM416.67,13.7c-4.65.12-9.31.59-13.98.32-1.41.28-1.96,4.29-2.09,5.75-.88,10.51,3.4,26.61-5.76,33.91-8.88,7.07-22.28,2.49-32.76,3.22-5.78.4-9.28,3.13-11.25,8.58-.17,83.63.12,167.26,0,250.9-.02,16.11-.34,32.16,0,48.39.19,9.27-3.2,22.59,8.95,24.72h239.88c5.44-.59,8.53-4.1,8.99-9.46.45-72.74-.47-145.63-.5-218.19-.02-42.94,1.99-87.19.51-130.06-.09-2.63-.22-9.05-.84-11.15-1.22-4.12-4.95-6.71-9.08-7.06-13.21-1.14-29.78.02-43.39,0-46.07-.1-92.7-1.05-138.67.16ZM614.67,325.3c3.34,1.03,3.37-3.28-.04-3.17l.04,3.17ZM617.33,334.17c-.07-.13-2-1.1-2.46-.98-1.53,1.1-.14,2.76.91,3.68.65-.61,2.11-1.72,1.55-2.7ZM614.17,338.73c.01,1.71-.58,4.25,1.86,3.49,3.49-1.08-1.43-3.97-1.86-3.49ZM614.63,347.49c3.65.38,3.45-3.55,0-3.23v3.23ZM614.63,360.4l.22,2.31c.87,1.28,2.54-.18,2.34-1.4-.64-.88-1.52-1.03-2.56-.91ZM366.15,396.72c-.42-.41-.61-2.03-1.27-2.19-.78-.19-1.33.85-1.14,1.61.24.98,1.67.15,1.8.24.33.25.67,3.98,2.11,3.68.65-.13.86-1.36.65-2.01-.31-.94-1.64-.84-2.14-1.33ZM511.31,394.53c-1.58-.17-1.73,1.99-2.78,2.53-.54.28-1.4.09-1.73.32s-.25,1.22-.66,1.64c-.44.46-2.03.59-2.44,1.47.16,2.8,1.71,4.3,2.88,1.04.21-.58-.03-1.6.2-1.87.15-.18,1.05-.07,1.53-.53.82-.77.76-2.74,2.93-2.85l.07-1.77ZM602.98,394.67c-.58-.24-1.13-.14-1.72-.13v1.37s1.3.06,1.3.06c.12,1.07.2,2.55,1.63,2.68l1.18-1.51c-.42-.32-2.23-2.4-2.39-2.47ZM356.81,395c-.86.79,2.22,3.98,3.22,2.07-1.02-1.19-1.27-2.48-3.22-2.07ZM444.43,395c-3.24.45.67,5.51,2.78,3.68.18-2.43-2.62-1.49-2.78-3.68ZM421.25,395.99c-1.61.22-2.5,2-1.02,3.15l2.53-2.08c-.06-1.02-.65-1.18-1.51-1.07ZM431.53,395.92l1.14,3.19c3.73-.96,1.56-3.04-1.14-3.19ZM437.52,395.92c-.23,1.89,2.24,3.87,3.68,2.07-1.09-1.11-1.86-2.43-3.68-2.07ZM386.79,398.68c-.34-3.02-3.42-3.41-3.22-.01,1.18.5,2.03.44,3.22.01ZM404.2,396.94c-1.16-.94-3.77-.17-2.45,1.77,1.36,1.41,3.88-.61,2.45-1.77ZM450.67,396.38l-.63,1.54c.68,2.63,5.09.44.63-1.54ZM456.1,399.02c1.72,1.73,3.67-1.44,2.2-2.44-1.13-.77-3.81.83-2.2,2.44ZM537.6,399.14c.16-1.18-.06-2.28-1.33-2.54-2.68-.56-1.22,3.34,1.33,2.54ZM544.06,396.38l-2.56.43-.2,2.33c1.97.27,3.03-.75,2.76-2.76ZM562.97,396.38c-.7-.06-1.45.1-2.03.51-2.7,1.93,2.86,4.25,2.03-.51ZM581.41,396.85c-.46-.67-3.24-.12-2.75,1.59s3.96.17,2.75-1.59ZM591.15,398.64c2.29,1.44,3.42-3.22.21-2.23-1,.31-.55,2.02-.21,2.23ZM596.64,396.38c-1.24,1.2,1.68,3.67,3.22,1.15-.33-.94-2.76-1.59-3.22-1.15ZM380.33,396.84c-1.55-.2-3.03,0-3.02,1.85,2.04,2.05,3.47.64,3.02-1.85ZM392.32,396.84h-2.77s.65,2.34.65,2.34l.57.36,1.32-.39.22-2.32ZM410.31,396.84h-2.31c-.17,1.21.16,2.07,1.16,2.76,1.28.27,1.27-2.05,1.15-2.76ZM475.28,397.82l-2.7-.98c-.11,1.22.19,2.43,1.16,3.22.81.19,1.99-1.44,1.54-2.24ZM480.87,396.84l-2.1.92.27,2.31,1.62-.45.22-2.77ZM484.11,396.84c.12.66-.46,1.46-.36,2.02.57,3.17,5.43-1.43.36-2.02ZM491.94,396.84c-1.74.16-2.86,1.03-1.76,2.7l1.76.07c-.31,1.76,1.32,2.62,2.08,4.14,1.22-.87,1.55-3.06.21-3.9s-2.8.26-2.29-3.01ZM501.17,400.07c-.81-.4-2.72-.29-3.25-.68-.82-.6.06-3.33-2.71-2.52l-.31,2.29c.45.56,1.74.28,2.36.89,1.13,1.1,1.42,6.17,3.91.02ZM503.47,396.84l-2.3.48c.22,1.47.37,2.58,2.04,2.77.8.03.26-2.77.26-3.25ZM509.58,402.72c1.44,1.63,2.42-1.53,3.11-2.44.8-1.05,2.54-.88,1.85-3.45l-2.28.48-.03,2.28c-1.5-.48-2.31.02-3.69.47.48.7.56,2.12,1.03,2.65ZM519.5,399.49c1.51-1.62-.27-3.48-1.68-2.6-1.2.75.08,4.32,1.68,2.6ZM534.32,399.66c-1.87-.27-2.33-1.57-3.47-2.76-.69-.23-1.71-.07-2.01.64-.62,1.48,1.06.95,1.8,1.88.56.71,1.01,3.27,1.67,3.42,1.18-.06,2.67-2.25,2.01-3.18ZM568.97,399.14l-.44-2.1-2.33-.2.53,2.23,2.24.07ZM419.97,401.42c-.32-4.23-6.35-3.05-2.29.73l2.29-.73ZM587.92,398.73c-.18.13-.53,1.54-.44,1.93.51,2.2,3.31.27,3.14-.77-.14-.8-2.04-1.62-2.7-1.16ZM398.83,401.86c1.59.86,3.39-.36,2.52-2.29l-2.57-.43.05,2.72ZM489.07,399.72c-.69-.66-1.82-.44-2.61-.06l.88,3.63c.83.58,2.85-2.5,1.73-3.57ZM475.39,399.66c-.89,1.6.47,2.61,1.56,3.62,2.72-2.07,2.07-4.31-1.56-3.62ZM483.18,403.29c.83-1.76,1.34-3.89-1.56-3.65-1.94.61.79,4.23,1.56,3.65Z"/>
        <path d="M340.59,222.12c1.18.72,2.09,9.88-1.01,9.49-3.43-.44-1.48-3.59-1.65-4.66-.06-.36-2.42-.59-1.18-3.52.49-1.16,2.81-1.93,3.83-1.31Z"/>
        <path d="M351.61,396.03c.49.43.48,1.54.61,2.17l2.28-.45.43,3.03,2.34.2v2.31c-3.25.44-3.36-5.18-6.23-.46h-.68c-.1-1.33-2.06-1.97-3.22-2.33-.14-.65,0-1.55.68-1.82,1.82-.7.93,2.32,2.36,2.73l1.36-.4c2.03-2.56-1.66-2.46-2.03-2.88-.29-.33-.11-2.04-.61-2.62l-2.5-.49.25-2.14c2.5-.87,2.71,1.66,3.5,2.55.44.5,1.2.36,1.46.59Z"/>
        <path d="M332.23,114.19c3.82-1.13,4.75,5.31,1.26,5.92-4.19.73-4.22-5.04-1.26-5.92Z"/>
        <path d="M336.86,47.78c2.19-.2,4.24,2.31,2.43,4.3-3.34,3.69-8.17-3.79-2.43-4.3Z"/>
        <path d="M319.76,135.86c4.22-.78,5.34,4.03,1.23,5.4-2.47-.87-3.5-3.69-1.23-5.4Z"/>
        <path d="M620.49,235.96c3.96-1.19,2.75,4.93-.32,3.39-1.41-.71-1.19-2.93.32-3.39Z"/>
        <path d="M620.46,228.56c2.42-.77,3.37,1.56,1.54,2.49s-3.27-1.94-1.54-2.49Z"/>
        <path d="M572.2,401.91v2.77s-2.75-1.16-2.75-1.16c-.31-1.8,1.5-1.7,2.75-1.6Z"/>
        <path d="M340.66,379.31c.37,1.78-1.21,3.85-2.76,2.06-.1-1.67,1.28-2.28,2.76-2.06Z"/>
        <polygon points="341.13 339.19 341.06 340.96 338.36 341.49 338.36 339.18 341.13 339.19"/>
        <path d="M343.37,394.94l-2.7.98c-.3-2.56,2.78-4.3,2.7-.98Z"/>
        <path d="M338.36,365.02c.33,1.94-1.65,2.4-3.22,2.3-.4-1.95,1.8-2.22,3.22-2.3Z"/>
        <polygon points="340.62 356.3 341.59 359.48 338.36 358.09 338.89 356.33 340.62 356.3"/>
        <polygon points="341.13 350.72 340.43 353.02 338.36 351.86 341.13 350.72"/>
        <path class="cls-1" d="M360.5,51.84c6.01-6.16,11.5-12.99,17.74-18.92,2.98-2.83,6.48-5.26,9.47-8.05,2.55-2.39,4.23-5.39,7.37-7.16-.7,8.05.27,17.24-.46,25.13-.51,5.49-3.48,8.35-8.98,9-3.07.36-6.26-.05-9.21-.02-5.31.05-10.63.01-15.93.02ZM389.49,28.39l-1.78-.07c.18,1.84-.57,3.48-.5,5.31.13,3.18,2.15,6.6.05,10.16-4.79,1.21-10.1.4-14.96,1.18-.64.1-6.07,1.28-5.35,2.25,4.4.99,16.74,2.17,20.08-.9,2.53-2.32,3.66-10.7,3.38-14.03-.05-.57-.72-3.78-.93-3.91ZM383.96,41.18c1.86-5.43-6.22-6.88-3.52-.51l3.52.51Z"/>
        <path class="cls-1" d="M511.31,394.53l-.07,1.77c-2.17.1-2.11,2.07-2.93,2.85-.48.46-1.38.35-1.53.53-.23.27,0,1.28-.2,1.87-1.17,3.26-2.72,1.76-2.88-1.04.41-.89,2-1.02,2.44-1.47.41-.43.33-1.41.66-1.64s1.19-.04,1.73-.32c1.05-.54,1.2-2.71,2.78-2.53Z"/>
        <path class="cls-1" d="M501.17,400.07c-2.48,6.15-2.78,1.08-3.91-.02-.62-.61-1.91-.33-2.36-.89l.31-2.29c2.77-.81,1.89,1.93,2.71,2.52.53.39,2.44.28,3.25.68Z"/>
        <path class="cls-1" d="M509.58,402.72c-.47-.53-.55-1.95-1.03-2.65,1.38-.46,2.19-.95,3.69-.47l.03-2.28,2.28-.48c.68,2.57-1.06,2.39-1.85,3.45-.69.91-1.67,4.06-3.11,2.44Z"/>
        <path class="cls-1" d="M534.32,399.66c.66.93-.83,3.11-2.01,3.18-.65-.15-1.11-2.71-1.67-3.42-.73-.93-2.41-.4-1.8-1.88.3-.71,1.32-.87,2.01-.64,1.14,1.2,1.6,2.5,3.47,2.76Z"/>
        <path class="cls-1" d="M491.94,396.84c-.51,3.27.93,2.16,2.29,3.01s1,3.03-.21,3.9c-.76-1.51-2.39-2.37-2.08-4.14l-1.76-.07c-1.09-1.67.03-2.54,1.76-2.7Z"/>
        <path class="cls-1" d="M419.97,401.42l-2.29.73c-4.07-3.78,1.97-4.96,2.29-.73Z"/>
        <path class="cls-1" d="M366.15,396.72c.49.49,1.82.4,2.14,1.33.22.65,0,1.88-.65,2.01-1.44.3-1.78-3.43-2.11-3.68-.13-.09-1.56.73-1.8-.24-.18-.76.36-1.8,1.14-1.61.66.16.86,1.78,1.27,2.19Z"/>
        <path class="cls-1" d="M475.39,399.66c3.63-.68,4.28,1.55,1.56,3.62-1.1-1.02-2.45-2.02-1.56-3.62Z"/>
        <path class="cls-1" d="M444.43,395c.16,2.19,2.95,1.25,2.78,3.68-2.11,1.83-6.02-3.23-2.78-3.68Z"/>
        <path class="cls-1" d="M489.07,399.72c1.12,1.07-.9,4.16-1.73,3.57l-.88-3.63c.79-.38,1.91-.61,2.61.06Z"/>
        <path class="cls-1" d="M602.98,394.67c.16.07,1.97,2.14,2.39,2.47l-1.18,1.51c-1.43-.13-1.51-1.6-1.63-2.68l-1.29-.06v-1.37c.59,0,1.14-.11,1.72.13Z"/>
        <path class="cls-1" d="M614.17,338.73c.43-.48,5.35,2.41,1.86,3.49-2.44.75-1.85-1.79-1.86-3.49Z"/>
        <path class="cls-1" d="M483.18,403.29c-.76.58-3.49-3.04-1.56-3.65,2.9-.24,2.39,1.89,1.56,3.65Z"/>
        <path class="cls-1" d="M617.33,334.17c.56.98-.9,2.09-1.55,2.7-1.05-.92-2.43-2.58-.91-3.68.46-.12,2.39.86,2.46.98Z"/>
        <path class="cls-1" d="M456.1,399.02c-1.61-1.61,1.07-3.21,2.2-2.44,1.47,1-.47,4.17-2.2,2.44Z"/>
        <path class="cls-1" d="M614.63,347.49v-3.23c3.45-.32,3.65,3.62,0,3.23Z"/>
        <path class="cls-1" d="M398.83,401.86l-.05-2.72,2.57.43c.87,1.93-.93,3.15-2.52,2.29Z"/>
        <path class="cls-1" d="M380.33,396.84c.45,2.5-.98,3.91-3.02,1.85,0-1.84,1.47-2.05,3.02-1.85Z"/>
        <path class="cls-1" d="M587.92,398.73c.66-.46,2.56.36,2.7,1.16.18,1.04-2.63,2.97-3.14.77-.09-.4.25-1.8.44-1.93Z"/>
        <path class="cls-1" d="M614.67,325.3l-.04-3.17c3.42-.1,3.38,4.2.04,3.17Z"/>
        <path class="cls-1" d="M421.25,395.99c.86-.12,1.45.05,1.51,1.07l-2.53,2.08c-1.48-1.15-.6-2.93,1.02-3.15Z"/>
        <polygon class="cls-1" points="392.32 396.84 392.1 399.16 390.78 399.54 390.21 399.18 389.55 396.84 392.32 396.84"/>
        <path class="cls-1" d="M386.79,398.68c-1.19.43-2.04.48-3.22-.01-.2-3.4,2.87-3,3.22.01Z"/>
        <path class="cls-1" d="M544.06,396.38c.27,2.01-.79,3.03-2.76,2.76l.2-2.33,2.56-.43Z"/>
        <path class="cls-1" d="M437.52,395.92c1.82-.35,2.59.96,3.68,2.07-1.44,1.79-3.91-.18-3.68-2.07Z"/>
        <path class="cls-1" d="M519.5,399.49c-1.6,1.72-2.89-1.85-1.68-2.6,1.41-.88,3.19.98,1.68,2.6Z"/>
        <path class="cls-1" d="M431.53,395.92c2.7.16,4.87,2.23,1.14,3.19l-1.14-3.19Z"/>
        <path class="cls-1" d="M562.97,396.38c.84,4.76-4.73,2.43-2.03.51.57-.41,1.33-.57,2.03-.51Z"/>
        <path class="cls-1" d="M404.2,396.94c1.43,1.16-1.09,3.18-2.45,1.77-1.32-1.93,1.28-2.71,2.45-1.77Z"/>
        <path class="cls-1" d="M475.28,397.82c.46.8-.73,2.43-1.54,2.24-.97-.8-1.28-2-1.16-3.22l2.7.98Z"/>
        <path class="cls-1" d="M484.11,396.84c5.07.59.22,5.19-.36,2.02-.1-.56.47-1.36.36-2.02Z"/>
        <path class="cls-1" d="M581.41,396.85c1.21,1.76-2.24,3.38-2.75,1.59s2.29-2.27,2.75-1.59Z"/>
        <path class="cls-1" d="M503.47,396.84c0,.48.53,3.28-.26,3.25-1.67-.19-1.82-1.3-2.04-2.77l2.3-.48Z"/>
        <path class="cls-1" d="M614.63,360.4c1.04-.12,1.92.03,2.56.91.2,1.22-1.48,2.68-2.34,1.4l-.22-2.31Z"/>
        <polygon class="cls-1" points="568.97 399.14 566.73 399.08 566.2 396.84 568.54 397.04 568.97 399.14"/>
        <polygon class="cls-1" points="480.87 396.84 480.66 399.62 479.04 400.07 478.77 397.76 480.87 396.84"/>
        <path class="cls-1" d="M596.64,396.38c.45-.44,2.89.21,3.22,1.15-1.54,2.52-4.46.05-3.22-1.15Z"/>
        <path class="cls-1" d="M537.6,399.14c-2.56.8-4.01-3.1-1.33-2.54,1.28.26,1.5,1.36,1.33,2.54Z"/>
        <path class="cls-1" d="M410.31,396.84c.12.72.13,3.03-1.15,2.76-1-.7-1.33-1.55-1.16-2.76h2.31Z"/>
        <path class="cls-1" d="M356.81,395c1.95-.41,2.2.88,3.22,2.07-1,1.9-4.08-1.28-3.22-2.07Z"/>
        <path class="cls-1" d="M591.15,398.64c-.34-.21-.78-1.93.21-2.23,3.2-.98,2.07,3.67-.21,2.23Z"/>
        <path class="cls-1" d="M450.67,396.38c4.46,1.97.05,4.16-.63,1.54l.63-1.54Z"/>
        <path d="M438.91,161.62c-12.67.52-25.43-1.41-38.03.02-12.07-1.2-27.07,1.53-38.78,0-4.28-.56-1.29-5.43,2.31-4.65,75.91.47,151.19-.59,226.94-.49.94,0,5.23.39,5.91.59,1.62.47,2.87,4.13-.83,4.53-10.49,1.12-23.07-.65-33.7-.48-2.84.05-5.96.89-8.95.51l-.28,14.3.55.37c14.92.58,30.06-1.82,44.84.59l.09,3.36-45.69.73c-.11,11.78.54,23.52.49,35.31-.06,13.06-.03,26.44,0,39.62.08,30.37-.1,60.75-.02,91.11l21.01.48c6.45-.25,14.85-1.24,21.2-.49,4.49.53,2.67,4.75.01,5.11-14.83-.74-30.04.75-44.78.36-1.98-.05-5.11-1.81-7.6-.63l.88,3.75c-.05,6.87,1.17,14.35.53,21.18-.17,1.81-.49,3.32-2.16,4.33-1.32-.44-2.32-1.59-2.49-2.94-.57-4.31-.39-15.81.03-20.31.17-1.82.95-3.96,1.38-5.76h-5.53s0,26.52,0,26.52c0,1.83-3.73,3.46-4.51-.1-.72-3.28-.28-13.55-.12-17.45.12-2.9.77-6.23.96-9.18-.08-.46-5.27-1.25-5.58.05l.24,27.36c-2.24,2.76-3.8,1.29-4.25-1.73-.73-4.9-.29-13.59-.14-18.81.04-1.44,1.26-6.07.05-6.93l-5.56.27c2.53,8.55.96,17.69,1.37,26.51l-2.13,2.51c-1.32-.44-2.32-1.6-2.5-2.94-.58-4.4-.38-15.71,0-20.34.15-1.78,1.9-4.73.16-5.65-.9-.48-4.26-1.09-4.68.2.33,2.7-.52,5.71-.54,8.22-.06,5.46,1.08,11.1.43,16.57-.57,4.77-4.09,4.61-4.57.52-.62-5.3-.19-14.27,0-19.86.07-2.1.88-4.41.48-6.67l-5.11.2-.44,27.23c-1.05,3.45-4.26,1.88-4.63-.89-.77-5.77.16-14.83.48-20.78.1-1.76-.05-3.54,0-5.3h-5.08v27.44c0,.83-2.66,2.96-3.93-.22s-.23-5.58-.21-8.52c.05-6.23-.08-12.47-.02-18.7l-3.86.07-.69.69c-.77,7.74.81,16.8-.06,24.38-.63,5.43-4.57,4.86-5.08.47-.55-4.67-.18-12.63,0-17.56.08-2.22.64-5.05.89-7.32-.27-1.12-4.47-1.08-5.02-.04v26.29c0,.1-.81,1.53-.99,1.78-1.36,1.89-3.36-1.1-3.59-2.73-1.11-7.9,1.2-17.23.37-25.27l-.37-.55c-.34-.23-.78-.17-1.16-.22-1.1-.14-2.8-.2-3.48.71v27.21c0,.46-1.38,1.23-2.05,1.18-3.95-.35-2.12-11.1-2.08-13.61.06-3.84-.15-7.71-.02-11.54.04-1.27.93-2.63.26-3.96l-.56-.36c-6.44-.59-4.43.51-4.3,4.76.19,5.87.44,13.64-.02,19.39-.17,2.11-.2,5.12-2.54,5.65-1.11-.81-1.9-1.45-2.09-2.86-.64-4.74-.32-15.74,0-20.8.13-2.07.89-4.12.94-6.21-1.14.11-6.65-.43-6.94.77.57,4.28.35,8.53.48,12.83.03.88.46,1.77.48,2.75.02,1.27.12,13.21-1.18,13.17l-2.52-2.55c.5-6.61-.72-14.27-.01-20.74.19-1.73,1.05-2.57,1.42-4.14l-1.39-1.42c-19.44.52-38.93.02-58.39.23-6.32.07-12.99,1.08-19.37.5-1.83-.17-3.77-.73-3.45-2.99.51-3.59,8.95-1.58,11.31-1.6,19.58-.24,40.16.1,59.49-.98,2.58-.14,6,.68,8.09-.67v-12.22h-52.58c-.8-.92-1.35-4.15.23-4.15h52.35v-7.84l-52.14.26c-1.93-3.29,1.92-3.33,4.39-3.51,12.47-.91,25.86.03,38.28,0,3.15,0,6.42-.26,9.47.48v-8.3c-4.22.42-8.57-.37-12.66-.48-12.77-.34-25.51.54-38.27.45-3.73-.59-2.56-4.58-.49-4.58h51.43v-9.69h-51.89c-1.23,0-2.35-4.15,0-4.15h52.35l-.46-7.84h-51.43c-1.86,0-2.1-3.1-.46-4.15h51.89v-9.23s-51.41-.47-51.41-.47c-2.85-.53-2.24-4.14-.47-4.14h51.89v-10.61c-11.3-.12-22.62.15-33.92.02-3.56-.04-7.26-.59-11.07-.5-2.21.05-8.12,1.88-8.52-1.61-.24-2.15,1.29-2.4,2.98-2.54,12.83-1.09,31.16-.43,44.32,0,1.97.06,4.09.87,6.21.48v-9.92c0-.08.81-.93-.24-1.15-.44-.1-5.03.53-6.47.48-13.76-.46-27.68-.79-41.51-.5-2.81.06-6.24,1.48-4.87-3.48.45-.56.99-.58,1.64-.67,6.29-.83,14.74.22,21.26-.46l30.19.48v-10.61h-52.35c-.66,0-1.31-2.25-.63-2.91.23-.57,2.11-1.24,2.48-1.24h49.81l.69-.69v-8.99c-4.07,1.24-8.47,1-12.7.94-1.09-.02-2.1-.49-3.19-.5-11.91-.12-23.91.33-35.75-.22-2.3-2.16-2.27-3.69,1.12-3.93,6.74-.47,13.63.43,20.29.5,10.07.11,20.16-.12,30.22-.02.69-3.05-.09-5.69,0-8.76h-52.35c-1.33-1.53-1.63-3.24.24-4.37,15.05-.16,30.34-.61,45.44-.26,1.74.04,6.88,1.76,7.13-1.14.07-.75-.47-1.78-.48-2.74-.06-3.62.09-7.25.02-10.86-14.37-.08-28.76.11-43.14.02-4.06-.02-8.33-.48-12.41-.51-6.03-.04-14.26,1.06-19.85.48-2.8-.29-3.94-1.64-3.01-4.39l78.42-.22v-14.76ZM507.17,161.62h-63.65v15.22h63.65v-15.22ZM549.14,161.62h-37.36v14.3l37.36-.23v-14.07ZM547.98,180.99c-12.07.04-24.14-.03-36.21,0v165.58l37.33-.02c-.05-19.9.14-39.82.04-59.72-.1-20.4-.63-40.84-.5-61.34.09-13.53,1.77-30.05.51-43.35-.05-.51.02-1.05-.48-1.4-.33-.28-.58.27-.7.27ZM507.17,180.99l-63.65.69v14.53l63.65-.69v-14.53ZM507.17,200.82l-63.65-.46v9.22l63.65-.92v-7.84ZM507.17,212.81c-9.76.01-19.54,0-29.31-.02-3.05,0-6.14.02-9.19,0-8.4-.06-16.86.52-25.16-.9v9.69l63.65.46v-9.22ZM507.17,236.8v-9.92l-.69-.69h-62.96v10.61h63.65ZM507.17,241.41h-63.65v10.61h63.65v-10.61ZM507.17,256.63l-63.65-.46v11.07l63.65-.69v-9.92ZM507.17,271.39l-63.65.46v9.69l63.65-.92v-9.22ZM507.17,285.22l-63.64-.92.28,8.33c3.06,0,6.13-.08,9.19-.05,2.18.03,4.25,0,6.42,0,15.92.02,31.84.02,47.76.02v-7.38ZM507.17,296.75h-63.65v9.69h63.65v-9.69ZM507.17,311.05h-63.65v8.76l63.65-.69v-8.07ZM507.17,321.66c-1.02.01-1.95.45-2.98.48-16.02.54-34.31.59-50.31,0-3.3-.12-7.02-.79-10.36-.94v8.76h63.65v-8.3ZM507.17,334.11h-63.65v12.22c.4.66.92.64,1.59.72,6.45.76,15.82-.06,22.64-.04,2.15,0,4.27,0,6.42,0,11,.01,22,.03,33,.02v-12.91Z"/>
        <path d="M554.67,87.82c.01-5.53,2.54-2.76,3.49-4.12.66-.93-.36-4.27,1.12-5.56l-4.86-.03-.68,6.48h-6.46l-.66,5.11-4.2.45c-1.14-3.01,1.48-15.17-.21-16.87-2.54-2.56-3.99,1.04-3.24,3.47-8.64.47-17.22.56-25.83-.46v-10.15h6.92v-6.69c0-.17.86-.67-.29-1.1l-3.4-.05c.62,1.26,1.2,2.36,0,3.49l-3.23-.27v-4.14s2.92.5,2.92.5l.76-1.64-.95-.52-2.28.28v-3.23c3.94-.61,7.27-1.7,11.1.18l1.32,5.62,5.27-.2.69.7.12,1.94c1.46.38,3.3,1.19,3.17-1.05-.18-3.06-3.89-1.15-3.23-4.43l-2.91.04c-3.52-5.95,5.67-3.48,8.81-2.72l1.48,7.29c.73.62,3.28-1.84,3.7-2.52,2.15-3.55-.36-4.06-.81-7.05-.24-1.57-.1-3.15-.12-4.72h4.61v6.92h3.23s.46-8.3.46-8.3l-1.38.46.04-4.57,5.03-.97v4.15s3.69-.46,3.69-.46v-5.99s-3.68.46-3.68.46l-.05-3.18-4.57-.05c.76-2.91,1.38-6.58-2.77-5.99l1.39,11.53-5.54.46c.98-2.68-1.54-9.25-.69-11.07.28-.59,1.28-.92,1.52-1.71.34-1.14-.03-2.63.1-3.83,3.3,1.04,6.68-.56,10.1.04,1.22,3.11.35,8.87,5.12,7.8l.43-3.95h4.66s.95,2.98.95,2.98c3.36-.28,5.08.97,3.56,4.34-.33.72-3.06,1.67-3.84,1.66-.99-.01-1.52-1.01-2.52-.88v10.15h3.23s-.92-6.92-.92-6.92c.27-.3,3.65,1.42,4.05,2.18.58,1.11.88,6.57.5,7.68-.35,1.02-4.85,1.6-5.93.75v4.15c6.62-1.61,13.46-2.07,20.27-1.82l.48,6.9,4.16-.26.45,3.49,4.61-.46v4.15s3.95.43,3.95.43l-.25,6.29-3.73-.46-.43-3.03-3.68.46-.47,7.38,4.36-.03.26,1.4,3.38-.42.76,1.12-.41,15.18c-1.31,1.36-4.2-1.26-4.2-2.27v-7.61l-6,.92v5.08c4.49-.93,3.42,3.09,2.82,6.19l-4.66-.66v4.61s-5.08-.92-5.08-.92c-.02,2.02.36,4.36-1.15,6h-12.22c-.78-6.12-.13-11.51.69-17.53h-4.38s0,3.69,0,3.69l-4.09.52-.06,4.08,3.71.29c.67,3.52-1.85,6.01-1.41,9.4l-4.64-.2-.37-3.42,3.17-.53v-1.38s-6.92-.46-6.92-.46l-.06,1.78c-.3.47-3.44.63-3.99,1.09-.97.81-.12,5.38-5.18,2.43v-11.3h4.61s.06,4.55.06,4.55l3.16.53v-4.15s3.72-.2,3.72-.2l.43-2.57c-2.59,0-8.28.86-6.86-3.4.41-1.22,5.56-.79,6.86-.76,0,.81-.24,2.56.43,3.03l3.21.15.02-3.16c-1.22-.08-2.45,0-3.67-.02ZM557.9,47.69c-.93.09-2.95-.34-3.49.43l-.2,4.64,3.66-.48.03-4.59ZM577.73,56l-4.15-.46.46,6.92,4.15-.46v3.69s6,0,6,0l.2,3.26,3.44.38.51-3.64-3.72-.2-.43-3.49-6.26-.43-.2-5.56ZM562.05,57.38l-15.22.47c.02,5.13-.75,10.11,0,15.22l15.02-.89.21-14.79ZM569.89,59.23h-3.23v14.76c.89.14,2.37.98,3.02.02l.21-5.56h-2.31s0-1.38,0-1.38h2.31v-7.84ZM520.54,73.06h14.53c1.14-.87.61-2.43.69-3.69h4.16c.48-3.37-.2-2.79-2.31-4.6,2.39.33,4.53-2.03,2.99-4.16-.21,0-3.08,2.62-3.2,2.8-1.55,2.39-.04,4.73-5.32,2.28l.46,4.15c-3.74-.09-7.76,1.6-10.84-1.37l-1.15,4.6ZM531.15,61.54l-6,.45v4.16s5.54,0,5.54,0l.46-4.61ZM574.04,66.15v7.38c2.74-.2,5.24.1,7.84.92l-.44-3.94-3.49-1.12-.22-2.78-3.69-.46ZM566.2,73.52c-2.23.19-2.75,2.43-5.57,2.04l-.69,3.51c.58.81,6.25.57,6.65-.08l-.4-5.47ZM571.74,81.13c.29,2.93-.21,6.24,0,9.22l.69.69h8.53l.41-11.94c-.91-1.06-8.36.34-10.1.41-.25.66.43,1.3.46,1.61ZM573.58,94.74c-4.29-.56-4.15,1.02-3.18,4.56l3.18.05v-4.61Z"/>
        <path d="M538.07,23.71c.91,3.5.29,7.25.44,10.86.04,1.09.47,2.1.5,3.19.06,2.49.38,7.54-.02,9.7-.09.52-.23.86-.69,1.15h-23.98c-.15,0-.7-.61-1.15-.46v-23.29c.37-.36,1.72-1.15,2.08-1.15h22.83ZM533.92,28.79c-5.4-.89-10.72.06-16.14,0-.18.5.46,1.01.46,1.15v13.61c5.18.32,10.56,1.04,15.68,0v-14.76Z"/>
        <path d="M538.53,80.9v24.21c-2.11,1.15-5.96.79-8.55.71-1.09-.03-2.1-.47-3.19-.5-3.52-.08-9.36.59-12.47.02-.52-.09-.86-.23-1.15-.69v-22.6c0-.13.47-1.07.78-1.17,8.2-.88,16.38-.11,24.59.02ZM518.24,87.13c.49,4.22-.36,9.29,0,13.61h15.68v-15.22s-16.14.47-16.14.47c-.18.52.44.96.46,1.15Z"/>
        <path d="M597.56,24.17v23.75c-3.51,1.71-8.35-.1-12.22,1.06l-12.25-.57c-1.52-1.1-.92-21.54-.43-24.71h23.75c.15,0,.7.61,1.15.46ZM592.95,28.79l-15.71-.26c-1.32.92.22,12.71.03,15.02l15.16.39c1.17-2.07.06-4.03.04-6.14-.02-3.04.16-6.01.49-9.02Z"/>
        <path d="M421.71,48.26c3.88-.86,10.56.17,14.64.38,19.76,1.31,41.91-1.81,61.39-.04,5.17.47,3,4.25-1.39,4.65-10.57.98-22.13-.03-32.75-.04-12.67-.01-28.37,1.16-40.63.04-4.12-.38-4.65-4.25-1.26-5Z"/>
        <path d="M597.04,122.81c-3.26.26-6.58-.13-9.84.07-22.83,1.37-45.84-.39-68.72,0-.78.01-1.55.47-2.32.47-2.1,0-4.16-2.3-2.53-3.95,1.14-1.15,11.68-.68,14.09-.7,13.96-.1,28.35.46,42.39.5,7.68.03,18.28-1.46,25.41-.5,2.49.33,2.41,2.08,1.53,4.11Z"/>
        <path d="M597.95,141.71c-2.02,1.52-3.3.51-5.21.51-25.84-.06-51.69.07-77.53.05-2.2-.22-3.39-3.76-.4-4.13,7.95-.99,16.02-.07,23.93-.03,17.35.08,36.98-1.23,54-.04.94.07,4.08.46,4.64.89l.57,2.74Z"/>
        <path d="M515.23,146.17c24.75.37,49.53.27,74.29.25,1.74,0,9.61-1.24,8.9,2.45-.1.53-1.75,2.07-2.43,2.11-.59.03-1.48-.44-2.32-.45-26.14-.32-52.31.27-78.45.05-2.6-.19-3.07-4.51.02-4.4Z"/>
        <path d="M425.44,112.81c.19.13.54,1.25.52,1.55-.13,1.69-2.44,2.41-3.87,2.54-16.53,1.52-35.38-1.2-52.16,0-2.72-1.19-5.87,1.09-7.85-1.37-1.74-2.16.1-3.3,2.32-3.28,18.72,1,38.66-1.25,57.23,0,.58.04,3.64.44,3.81.56Z"/>
        <path d="M534.38,133.47c-.11-.66,0-1.12.42-1.64,1.33-1.66,10.6-1.31,13.18-1.58,5.55-.59,12.65-2.31,18.01-2.32,8.22-.02,16.72,2,25.82,1.88,1.92-.02,6.59-1.42,6.23,2.51-.25,2.7-4.92,1.17-6.3,1.2-10.5.29-20.82-.96-30.87-.53-8.73.37-17.89,2.96-26.49.47Z"/>
        <path d="M396.31,77.29c2.34-.76,6.44.88,9.15.88,4.23,0,8.6-1.05,13.39-.97,7.02.12,14.11.63,21.22.5,2.38-.04,11.89-1.45,13.17.16,1.03,1.3.4,4.61-1.63,4.45-12.46-.65-25.48.16-37.86-.47-1.75-.09-3.26-.81-5.04-.96-3.02-.24-9.11.97-11.2.13-1.45-.58-3.05-3.13-1.2-3.73Z"/>
        <path d="M368.67,246.58c6.99-1.59,11.14,7.69,10.17,13.4-.49,2.86-4.64,7.74-7.53,8.17-4.86.71-10.09-4.87-10.32-9.5-.17-3.5,4.04-11.23,7.68-12.06ZM367.12,262.46c2.99,2.85,7.91.23,7.19-4.19-.97-5.95-12.76-1.12-7.19,4.19Z"/>
        <path d="M418.49,359.59c9.35-1.58,15.48,10.39,8.67,17.43-5.85,6.05-16.7,2.17-17.33-6.25-.32-4.26,4.51-10.48,8.66-11.18ZM418.48,364.65c-5.32,1.21-4.7,11.65,2.09,10.88,8.08-.91,5.98-12.73-2.09-10.88Z"/>
        <path d="M583.43,377.3c-4.89-4.85-3.2-12.5,2.17-16.18,8.66-5.92,19.5,7.26,11.96,15.65-3.61,4.01-10.29,4.34-14.13.53ZM588.68,364.67c-5.68,1.51-4.36,11.9,3.01,10.39,6.73-1.38,3.09-12.01-3.01-10.39Z"/>
        <path d="M393.61,359.58c8.73-.84,13.85,9.48,8.6,16.48-4.82,6.42-16.37,3.84-17.27-4.35-.56-5.14,3.18-11.6,8.67-12.13ZM393.11,364.65c-4.54,1.36-4.25,11.36,2.55,10.42,7.5-1.03,4.62-12.57-2.55-10.42Z"/>
        <path d="M566.56,359.6c3.66-.12,8.11,3,9.68,6.22,4.5,9.23-7.9,19.3-16.26,11.18-6.33-6.15-1.74-17.12,6.58-17.4ZM565.14,364.65c-7.34,1.69-2.31,15.02,5.18,9.79,5.34-3.74.53-11.1-5.18-9.79Z"/>
        <path d="M368.22,360.05c13.85-2.39,14.97,19.42,1.71,19.73-12.37.29-12.11-17.94-1.71-19.73ZM369.6,364.65c-7.18.74-5.57,12.9,2.31,9.7,5.35-2.17,2.59-10.21-2.31-9.7Z"/>
        <path d="M422.18,59.76c1.29-.25,2.32.39,3.56.41,10.12.16,20.36.18,30.48,0,3.33-.06,7.06-1.37,10.36.2,1.45,1.25,0,4.57-2.05,4.41-12.61.47-25.31-.51-37.87-.51-1.9,0-3.32,1.04-5.08.04-2.28-1.3-2.05-4.04.6-4.56Z"/>
        <path d="M424.05,36.3c4.43-.51,6.87.99,10.81,1.13,2.35.09,5.17-.75,7.48-.83,8.92-.31,17.87-.36,26.79-.46,3.27.36,2.33,3.92-.46,4.2-7.87.04-15.68.57-23.57.46-5.96-.08-10.12-.3-16.13-.03-2.37.11-9.59,1.02-8.76-2.81l.69-1.11c1.02-.21,2.11-.43,3.14-.55Z"/>
        <path d="M404.54,91.05c.24.07.67.71.94.94.49,1.06-.63,3.46-1.86,3.68-6.16-.05-12.31.06-18.47.02-3.85-.03-7.9-.57-11.99-.5-2.88.05-11.49,2.33-11.75-2.09-.11-1.91,1.3-2.03,2.54-2.03h40.59Z"/>
        <path d="M368.68,289.94c9.01-1.43,14.91,12.17,5.44,17.43-8.46,4.7-16.89-5.87-11.52-13.36,1.09-1.51,4.26-3.79,6.08-4.07ZM368.68,294.99c-6.01,1.22-2.52,12.21,3.31,8.87,5.14-2.94,1.87-9.92-3.31-8.87Z"/>
        <path d="M404.18,150.41c-3.32,2.75-6.92-2.43-7.24-2.17-.16,1.84-.82,2.12-2.53,2.31-7.56.82-17.07-.25-24.93-.02-1.74.05-6.1,1.29-7.37.03-1.06-1.05-.74-3.36.44-4.2s11.98-.45,14.35-.45c3.65.01,7.35-.08,11.07,0,2.85.06,7.43,1.09,10.1.92s4.44-3.41,6.96,1.43l.12.58c-.03.2-.78,1.4-.97,1.56Z"/>
        <path d="M363.43,237.09c-7.26-7.26,1.54-19.79,10.97-13.97,12.42,7.66-2.11,22.83-10.97,13.97ZM368.67,226.28c-1,.22-2.04,1.19-2.57,2.05-3.42,5.59,4.82,10.24,7.96,4.74,1.99-3.5-1.69-7.61-5.39-6.79Z"/>
        <path d="M467.43,134.02c.88,1.42-.65,3.86-2.44,4.1-9.17,1.23-22.11-.66-31.87-.5-1.1.02-2.12.57-3.17.48-2.72-.24-4.51-4.65.4-5.09,9.44-.84,20.04.59,29.56.5,1.62-.01,6.46-1.2,7.51.51Z"/>
        <path d="M376.48,283.21c-8.54,8.57-20.52-3.23-13.4-11.32,8.31-9.44,21.48,3.21,13.4,11.32ZM372.79,274.31c-3.35-3.19-8.76.74-6.98,4.91.28.67,2.52,2.53,3.33,2.7,4.45.9,7.1-4.32,3.65-7.6Z"/>
        <path d="M367.76,200.47c9.81-1.67,16.17,10.22,6.73,15.95-8.44,5.11-17.25-4.66-11.88-12.34,1.13-1.62,3.17-3.27,5.15-3.61ZM368.2,204.61c-3.8,1.15-3.88,8.89,2.21,8.71,7.46-.23,4.07-10.61-2.21-8.71Z"/>
        <path d="M369.49,310.83c9.51-.21,13.13,12.73,4.09,17.22-6.45,3.21-14.39-4.35-11.91-10.99,1.04-2.8,4.69-6.16,7.82-6.23ZM366.64,316.73c-3.77,4.27,2.99,10.35,6.78,5.63,3.5-4.35-2.91-10.02-6.78-5.63Z"/>
        <path d="M368.22,181.56c8.87-1.51,14.6,8.36,7.97,14.43-8.2,7.5-19.21-2.89-13.03-11.18,1.28-1.72,2.88-2.87,5.06-3.24ZM369.14,185.22c-5.46,1.12-3.88,9.82,2.09,8.58,5.61-1.16,3.23-9.67-2.09-8.58Z"/>
        <path d="M459.66,105.35c.17,2.55-3.76,2.64-5.75,2.78-15.02,1.03-32.15-1.45-47.54-.96-1.95.06-5.81,1.83-4.51-1.82,7.27-.94,14.73-.31,22.08-.45,10.1-.19,20.76-1.26,30.9-.5,1.65.12,3.23.61,4.83.94Z"/>
        <path d="M461.39,150.44c-1.71,1.45-9.27.13-11.62.09-6.13-.1-14.59.78-20.34.04-3.38-.43-3.5-4.19.47-4.65,6.37-.74,20.66-.53,27.22.02.66.06,3.66.49,3.94.67.77.5,1.15,3.12.33,3.82Z"/>
        <path d="M391.17,77.21c1.12.34.99,3.55-1.02,4.03-5.55,1.32-13.4.43-19.29.56-2.32.05-8.45,1.86-9.35-1.24-.34-1.16.71-3.36,1.53-3.36h28.13Z"/>
        <path d="M575.8,266.68c-1.82,1.09-4.23-1.49-4.93-3-.38-.81-.05-1.48-.29-1.96-.69-1.37-3.18-2.48-.66-4.84,5.09-4.77,4.77,6.68,6.63,7,3.44-.53,6.03.82,6.25-4.02l-1.58.42c-3.7-6.02,6.83-7.04,7.08-1.07.09,2.2-1.36,9.58-4.31,9.43-3.49-.18-2.89-6.7-7.2-3.46-.6.45-.82,1.4-1.01,1.51Z"/>
        <path d="M387.19,138.96c-1.62-.13-3.18.45-4.76.54-4.93.29-10.15-.58-15.26-.5-2.45.04-4.76,1.48-6.13-1.97.42-4.38,8.03-2.12,10.76-2.16,4.21-.06,8.61-.9,12.91-.46,3.32.34,3.63,1.5,2.47,4.55Z"/>
        <path d="M428.3,91.51c1.18.02,2.27-.41,3.44-.48,4.74-.31,14.95-.59,19.41,0,1.33.18,2.09.62,2.08,2.07-.09.93-1.68,2.38-2.57,2.55-3,.57-15.51.36-18.9,0-2.88-.3-3.44-1.27-3.46-4.15Z"/>
        <path d="M393.71,104.89c.2,1.24-.68,2.14-1.71,2.67-2.9-.21-5.88.46-8.65.58-5.19.22-15.05.65-19.87,0-2.09-.28-2.66-1.66-1.28-3.27,10.45-.12,21.09-1.15,31.51.02Z"/>
        <path d="M472.56,113.21c.05,3.02-1.41,3.49-4.04,3.58-1,.04-1.93-.44-2.63-.38-5.94.49-13.17,2.46-18.66-.69,1.08-2.93,4.44-2.82,7.13-3,3.38-.23,8.24-.55,11.55-.48.88.02,6.46.69,6.65.97Z"/>
        <path d="M459.32,91.62c1.04-.9,12.19-.66,14.43-.59.99.03,1.84.45,2.75.48,1.23.05,5.58-1.45,5.6,1.61.02,3.54-3.71,2.51-5.58,2.52-2.88.01-14.7.52-16.38-.22-1.34-.59-1.93-2.83-.82-3.8Z"/>
        <path d="M397.77,122.52c5.17-.12,3.68,4.61.73,4.96-1.29.15-2.38-.45-3.62-.47-4.29-.08-11.96.73-15.69.01-2.32-.45-3.45-3.69.91-4.14,5.59-.57,12.03-.22,17.67-.35Z"/>
        <path d="M592.4,293.16c2.47-.19,4.54,1.95,5.27,4.18,2.02,6.14-5.12,13.24-8.04,7.58-1.68-3.27-2.07-11.39,2.77-11.76ZM592.29,297.69c-1.81.57-1.31,6.12,1.26,5.47s.94-6.16-1.26-5.47Z"/>
        <path d="M592.84,201.82c5.48-.9,7.05,8.18,3.04,11.38-6.36,5.08-11.55-9.99-3.04-11.38ZM592.53,205.48c-.46.31-1.63,5.84,1.48,4.96,2.67-.75.78-6.47-1.48-4.96Z"/>
        <path d="M587.28,331.48c2.39,2.86.78,12.17-4.03,11.23-.44-.09-5.82-3.44-5.98-3.75-.62-1.22,1.97-.17,2.53-.18,2.16-.02,3.79-1.49,4.38-3.52.53-1.81-2.2.64-2.54.61-.32-.03-.91-.81-1.1-1.14-1.8-3.3,3.97-6.56,6.73-3.25Z"/>
        <path d="M591.92,312.54c5.81-.94,8.31,8.52,3.32,11.64-6.27,3.92-10.04-10.55-3.32-11.64ZM592.31,316.62c-1.79.91-.41,5.29,1.27,5.01,1.94-.31,1.79-6.01-1.27-5.01Z"/>
        <path d="M592.37,222.15c7.73-1.38,7.14,12.05,1.23,12.35-4.4.22-8.53-11.04-1.23-12.35ZM592.78,225.76c-2.25,1.04-.8,6.15,1.29,5.49,1.98-1.19.9-6.13-1.29-5.49Z"/>
        <path d="M593.3,239.67c4.93-.28,5.92,7.15,3.08,10.47-2.52,2.95-4.38,1.79-6.39-.94-2.84-3.85-2.12-9.23,3.31-9.54ZM592.76,243.27c-1.67,1.46-1.42,4.77.83,5.5,2.12-.88,1.51-6.23-.83-5.5Z"/>
        <path d="M593.76,330.63c5.85-1.54,8.24,7.67,4.04,10.96-6.05,4.75-10.31-9.31-4.04-10.96ZM596.6,339.23c2-4.87-3.4-7.73-2.2-.71l.68.7h1.51Z"/>
        <path d="M592.95,100.28v-3.22s3.84-.5,3.84-.5c.29.08.77,1.11.77,1.19v6.92c-3.07,2.54-7.78-.13-11.53.69v-5.08h6.92Z"/>
        <path d="M592.84,255.82c5.16-.31,6.27,5.88,4.11,9.64-4.79,8.31-13.32-9.09-4.11-9.64ZM594.33,264.47c.56-1.99,1.43-5.19-1.8-4.56-.87,2.02-.96,4.72,1.8,4.56Z"/>
        <path d="M586.85,294.1c.91,2.86.48,10.67-2.67,12.11s-7.09-3.37-2.26-4.65c-2.99-4.63-1.08-9.9,4.93-7.46Z"/>
        <path d="M593.66,273c4.61.24,5.25,7.31,2.45,10.54-6.06,6.99-12.16-11.04-2.45-10.54ZM594.22,277.04c-3.19-3.2-4.64,5.83-.12,4.03.58-1.09,1.08-3.07.12-4.03Z"/>
        <path d="M580.12,247.94c.03-.08.66-.09.84-.39,1.45-2.37-.73-2.71-.94-4.09-.26-1.73,1.67-4.29,3.46-4.31,6.47-.09,5.46,12.8.13,12.32-1.36-.12-4.07-2.28-3.49-3.53ZM584.65,243.72c-1.58-.25-3,.53-2.77,2.3h2.76s0-2.3,0-2.3Z"/>
        <path d="M583.73,317.05c-1.26-.28-1.74,2.78-3,.93-2.19-3.21,3.85-8.5,6.27-4.42,1.13,1.9.11,4.11-.03,6.03-.04.61.41,1.29.38,1.86-.25,5.15-7.16,3.79-6.87.47.11-1.24,3.57-2.67,3.25-4.86Z"/>
        <path d="M581.55,233.43c-.72-.58-1.24-2.29-1.08-3.23.15-.61,4.69-2.63,4.17-4.47l-3.89,1.84c-1.84-1.7-.22-4.88,1.94-5.42,8.83-2.24,5.16,16.39-1.14,11.29Z"/>
        <path d="M581.28,280.47c1.15-1.29-.79-2.03-.8-3.78-.03-3.63,5.72-5,6.74-1.64,1.76,5.8-2.6,15.53-7.12,6.62l.16-.61c.28-.26.8-.34,1.02-.59Z"/>
        <path d="M584.19,210.96c.81.32,3.96-1.54,4.15-.22.36,2.56-3.3,4.71-5.52,3.68-.26-.12-1.96-1.82-2.08-2.08-1.45-3.14,2.71-4.51,3.45-6.22.81-1.86-3.08,1.25-3.63-.52-1.34-4.28,6.87-4.82,7.32-.35.27,2.68-2.51,3.76-3.69,5.72Z"/>
        <path d="M592.84,184.77c5.15-.76,6.94,7.11,2.57,9.98-6.39,4.2-9.89-8.9-2.57-9.98ZM592.77,187.95c-1.14.37-1.29,4.6.41,4.59,1.85-.03,2.15-3.75,1.19-4.43l-1.6-.16Z"/>
        <path d="M586.37,185.73c4.4,3.63-1.02,15.55-5.15,8.58-.11-.19-1.42-3.88-1.46-4.09-.21-1.16.35-3.62,1.22-4.39,1.11-.97,4.26-1.04,5.39-.11ZM584.18,188.37c-1.81-.26-2.83,1.64-2.76,3.22l3.03-.43-.28-2.79Z"/>
        <path d="M425.53,91.51c.28.26-.67,2.78-1.04,3.11-1.49,1.36-16.45,2.85-13.5-3.12l1.9-.91,12.64.91Z"/>
        <path d="M573.58,242.8c1.59,1.68,2.5,3.17,2.77,5.53l2.3-.46c-1.73,2-5.3,4.69-7.33,1.57-1.07-1.65.01-3.22-.09-3.37-.21-.31-2.47-.91-2.63-2.65-.11-1.2,2.11-4.14,3.39-4.33,2.75-.4,5.21,4.87,1.59,3.71Z"/>
        <path d="M571.74,300.9l.92-.45c-5.53-1.17-2.69-6.28,1.4-6.74,2.53.85,1.31,3.53,1.63,4.94.28,1.25,2.23,4.7,2,5.62-3.27,4.18-5.92.63-5.94-3.37Z"/>
        <path d="M575.96,320.67c.57.34,3.03-.31,2.94,1.46-3.88,3.59-8.6,1.74-7.16-3.69-6.32-.98-.41-9.59,2.97-4.13,1.09,1.75.45,5.88,1.25,6.36Z"/>
        <path d="M570.36,337.81l2.3-.23-3.48-2.08c-.79-2.85,1.83-5.66,4.75-4.27,1.99.94.93,2.3,1.25,3.37.34,1.15,2.14,4.76,1.86,5.53-3.09,4.13-5.58,1.63-6.68-2.32Z"/>
        <path d="M571.74,205.44c1.33,1.68,3.27,1.8,3.28,4.37.02,4.91-5.95,6.4-5.39.66l1.65-.65c-2.59-1.96-5.49-2.62-2.32-6.02,2.7-2.89,4.31-1.46,6,1.4-.89,1.35-2.02.11-3.22.23Z"/>
        <path d="M569.85,228.57c-.12-.18-1.18-.34-1.75-1.28-2.15-3.55,5.51-7.76,6.67-2.5.11.5-.57.89-.5,1.44.12.97.66,1.94.72,2.99.22,4.2-4.03,6.55-5.35,1.14-.17-.71.37-1.55.22-1.78Z"/>
        <path d="M568.86,190.76c-.19-.28-1.16-.3-1.55-1.44-.6-1.76.84-3.66,2.47-4.07,5.74-1.44,5.38,12.6,1.04,10.76-2.32-.98-1.81-5-1.97-5.25Z"/>
        <path d="M571.6,273.33c1.17-.35,3.02-.37,3.48.94.12,2.41,4.14,11.51-1.17,9.95-2.41-.71-1.83-3.66-2.27-5.13-.27-.89-1.75-1.51-1.99-2.58s.94-2.88,1.95-3.18Z"/>
        <path d="M411.1,135.47c1.58,1.27.87,3.63-1.03,4-1.01.2-7.33.18-8.2-.08-1.24-.37-2.33-2.82-1.25-3.84,1.33-1.26,9.31-1.02,10.48-.08Z"/>
        <path d="M363.12,122.96c1.44-.43,10.21-.48,10.23,1.52-.68.81-1.11,1.98-2.21,2.34-.55.18-6.04.73-6.67.66-1.19-.14-2.36-1.13-2.97-2.14-.13-.71.92-2.17,1.63-2.38Z"/>
        <path d="M412.16,172.23v-6.92c4.3-1.47,6.28,1.63,5.47,5.7-.46,1.36-4.2,1.27-5.47,1.22Z"/>
        <path d="M409.39,172.22c-1.04.32-1.76-.88-2.53-.91-.9-.03-2.78,1.84-3.72.47-.6-.87.31-5.75,1.17-6.26,3.97-2.34,5.12,4,5.08,6.69Z"/>
        <path d="M395.39,164.88l4.1,1.34c.44,4.05.7,7.5-4.66,5.57-.18-1.32-.78-6.49.56-6.91Z"/>
        <path d="M422.18,164.93c1.23-.26,1.9-.17,2.64.87.56.79.89,5.22.26,5.74-4.56,3.77-6.98-5.75-2.89-6.61Z"/>
        <path d="M473.56,134.93c.17-.26,3.68-1.04,4.32-1.01,6.23.28,2.43,7.13-2.98,4.86-1.15-.48-1.95-2.9-1.33-3.85Z"/>
        <path d="M412.01,145.57c5.8-1.78,6.45,7.61.47,5.81-2.34-.7-2.96-5.04-.47-5.81Z"/>
        <path d="M364.18,338.73c1.5,4.13,4.05,5.75,8.51,5.04.79-.13,3.94-2.27,3.48-.67-.89,3.06-5.08,3.47-7.75,2.7-2.11-.61-8.04-5.84-4.24-7.07Z"/>
        <path d="M496.89,33.49c4.61-1.38,5.68,4.85,2.11,5.84-2.78.78-4.76-5.05-2.11-5.84Z"/>
        <path d="M492.29,33.05c1.26,1.24-.27,7.31-3.56,4.25-2.74-2.55.05-6.57,3.56-4.25Z"/>
        <path d="M392.17,134.48c2.42-.84,5.41.89,3.59,3.59-3.22,4.77-6.67-2.53-3.59-3.59Z"/>
        <path d="M483.12,33.46c.45.73-.21,3.64-.83,4.34-3.19,3.61-6.87-7.47.83-4.34Z"/>
        <path d="M494.09,60.69c1.12-.35,5.77-.12,5.64,1.46-.39,2.04-3.05,2.08-4.7,1.6-1.16-.34-2.63-2.52-.94-3.05Z"/>
        <path d="M575.47,192.1c.83-.47,3.33-.23,3.63.7l-2.06,3.87c-1.36.34-1.88-3.74-1.57-4.57Z"/>
        <path d="M592.95,58.3c-1.65.08-1.13-2.77-3.2-2.81l1.2-2.2c3.94-.16,2.96,2.23,1.99,5.02Z"/>
        <path d="M578.14,214.59c-3.18,1.91-3.45-7.8.93-3.31l-.93,3.31Z"/>
        <path d="M578.65,230.8c.11,1.28-.88,4.18-2.52,3.68-1-.71-.81-2.1-.64-3.16l3.16-.52Z"/>
        <path d="M470.27,106.28c-.24,1.6-4.82.8-5.07.45-.06-2.25,3.61-.55,5.07-.45Z"/>
        <path d="M389.49,28.39c.21.13.88,3.34.93,3.91.28,3.33-.85,11.71-3.38,14.03-3.34,3.07-15.68,1.89-20.08.9-.72-.97,4.71-2.15,5.35-2.25,4.87-.78,10.17.03,14.96-1.18,2.09-3.56.08-6.98-.05-10.16-.08-1.84.67-3.48.5-5.31l1.78.07Z"/>
        <path d="M383.96,41.18l-3.52-.51c-2.7-6.37,5.38-4.92,3.52.51Z"/>
        <path class="cls-1" d="M547.98,180.99c.12,0,.37-.54.7-.27.5.34.43.88.48,1.4,1.27,13.3-.42,29.82-.51,43.35-.13,20.51.41,40.95.5,61.34.09,19.91-.09,39.82-.04,59.72l-37.33.02v-165.58c12.06-.03,24.14.04,36.21,0ZM537.94,186.13c-3.21.86-2.3,7.84.81,8.69,5.48-.8,4.15-10.01-.81-8.69ZM541.76,209.59c-2.35.92-3.4-.62-5.53-.92.19,3.91,3.86,4.23,5.53.92ZM540.37,296.75c.95-1.33-3.42-2.76-4.13,1.19-.87,4.81,4.3,9.4,4.59,2.97-3.29,1.52-3.53-3.7-.46-4.16Z"/>
        <polygon class="cls-1" points="507.17 180.99 507.17 195.52 443.52 196.21 443.52 181.68 507.17 180.99"/>
        <path class="cls-1" d="M507.17,334.11v12.91c-10.99.01-22,0-33-.02-2.15,0-4.27,0-6.42,0-6.82-.02-16.19.8-22.64.04-.67-.08-1.19-.06-1.59-.72v-12.22h63.65Z"/>
        <path class="cls-1" d="M507.17,161.62v15.22h-63.65v-15.22h63.65ZM462.82,164.91c-4.02-.97-4.59,1.84-4.05,5.21.65,4.09,8.09,2.18,3.66-1.36-.22-1,.94-.37.97-1.36.03-.82-.26-1.74-.58-2.49ZM491.88,165.37l-2.65-.47c-1.09,2.01-1.19,4.07-.92,6.33.92.45,3.25.99,3.89.1l-.33-5.96ZM494.72,171.28c4.87,2.66,4.19-5.85,1.98-6.38l-2.01.71.03,5.67ZM454.17,169.89c.16-8.92-3.87-3.3-2.28,1.8l3.18.33.42-2.1-1.32-.04ZM471.65,165.31c-1.93.16-4.28-.71-5.53,1.16l1.78,1.21c.3,1.03-.46,4.16.76,4.54,2.36.74,1.34-3.36,1.68-4.32.25-.72,2.01-.66,1.32-2.59ZM478.04,165.38c-2.92-1.8-4.86,4.08-3.19,6.18l4.62-.28c.54-.56-.91-5.58-1.43-5.9ZM482.26,165.31l.69,6c5.04,2.08,2.97-2.45,2.8-5.57l-3.49-.43Z"/>
        <polygon class="cls-1" points="507.17 256.63 507.17 266.54 443.52 267.24 443.52 256.17 507.17 256.63"/>
        <rect class="cls-1" x="443.52" y="241.41" width="63.65" height="10.61"/>
        <polygon class="cls-1" points="507.17 236.8 443.52 236.8 443.52 226.19 506.47 226.19 507.17 226.88 507.17 236.8"/>
        <rect class="cls-1" x="443.52" y="296.75" width="63.65" height="9.69"/>
        <polygon class="cls-1" points="507.17 271.39 507.17 280.61 443.52 281.53 443.52 271.85 507.17 271.39"/>
        <path class="cls-1" d="M507.17,212.81v9.22l-63.65-.46v-9.69c8.29,1.43,16.75.84,25.16.9,3.05.02,6.14,0,9.19,0,9.77.01,19.54.03,29.31.02Z"/>
        <polygon class="cls-1" points="507.17 311.05 507.17 319.12 443.52 319.82 443.52 311.05 507.17 311.05"/>
        <polygon class="cls-1" points="507.17 200.82 507.17 208.66 443.52 209.58 443.52 200.36 507.17 200.82"/>
        <path class="cls-1" d="M507.17,321.66v8.3h-63.65v-8.76c3.34.15,7.06.82,10.36.94,16,.6,34.29.54,50.31,0,1.03-.03,1.95-.47,2.98-.48Z"/>
        <path class="cls-1" d="M507.17,285.22v7.38c-15.91,0-31.84,0-47.76-.02-2.17,0-4.23.03-6.42,0-3.06-.04-6.13.05-9.19.05l-.28-8.33,63.64.92Z"/>
        <path class="cls-1" d="M549.14,161.62v14.07l-37.36.23v-14.3h37.36ZM538.92,164.46c-.04-.06-1.01-.35-1.31-.53.29,1.08.39,2.01-.69,2.71l-3.93-2.24c-.77,1.82,1.31,2.9,1.41,3.94.17,1.67-3.07,2.84-1.17,4.36l3.16-1.82c1.03.7,1.54,2.11,3.06,1.81.02-1.5-1.45-2.95-1.42-4.39.02-1.12,1.65-2.7.89-3.84ZM545.45,164.85l-4.15-.47c-.81.8.02,9.34,3.22,7.85.2-.19-.14-4.04-.03-4.87s1.57-.86.96-2.5ZM528.39,166.24l1.37-.7c.02-.79-3.72-1.08-4.19-.42-.47,1.24-.83,6.32.02,6.91l4.9-.25-.32-1.8-2.25-.06c-.51-1.71,1.98-.58,2.31-.92v-1.84s-1.59,0-1.59,0l-.25-.92ZM523.31,165.31c-1.01.12-6.48-.46-6.45.69,3.36,1.27,1.98,2.39,2.27,5.1.18,1.66,1.19,2.38,2.25.82l.13-4.48,1.77-.78.02-1.35Z"/>
        <path class="cls-1" d="M562.05,57.38l-.21,14.79-15.02.89c-.75-5.11.02-10.09,0-15.22l15.22-.47ZM557.78,61.65c-2.87-3.06-8.83.04-7.62,5.09.68,2.81,5.94,2.87,7.53,1.28,1.03-1.03.98-5.41.08-6.37Z"/>
        <path class="cls-1" d="M571.74,81.13c-.03-.31-.72-.95-.46-1.61,1.73-.07,9.19-1.47,10.1-.41l-.41,11.94h-8.53l-.69-.69c-.21-2.98.29-6.3,0-9.22ZM578.55,87.71c.28-1.94,1.65-5.17-1.04-5.46-5.03-.54-3.84,8.45,1.04,5.46Z"/>
        <path class="cls-1" d="M520.54,73.06l1.15-4.6c3.08,2.97,7.09,1.29,10.84,1.37l-.46-4.15c5.28,2.45,3.78.11,5.32-2.28.12-.18,2.99-2.79,3.2-2.8,1.54,2.13-.6,4.49-2.99,4.16,2.11,1.81,2.79,1.23,2.31,4.61h-4.16c-.08,1.26.45,2.81-.69,3.69h-14.53Z"/>
        <path class="cls-1" d="M569.89,59.23v7.84h-2.31s0,1.38,0,1.38h2.31s-.21,5.56-.21,5.56c-.65.96-2.13.11-3.02-.02v-14.76h3.23Z"/>
        <path class="cls-1" d="M574.04,66.15l3.69.46.22,2.78,3.49,1.12.44,3.94c-2.6-.82-5.09-1.12-7.84-.92v-7.38Z"/>
        <polygon class="cls-1" points="577.73 56 577.93 61.56 584.19 61.99 584.62 65.48 588.34 65.68 587.83 69.32 584.39 68.94 584.19 65.68 578.19 65.69 578.2 61.99 574.05 62.45 573.59 55.54 577.73 56"/>
        <path class="cls-1" d="M566.2,73.52l.4,5.47c-.4.65-6.07.89-6.65.08l.69-3.51c2.81.38,3.34-1.86,5.57-2.04Z"/>
        <polygon class="cls-1" points="531.15 61.54 530.69 66.15 525.15 66.15 525.15 61.99 531.15 61.54"/>
        <path class="cls-1" d="M557.9,47.69l-.03,4.59-3.66.48.2-4.64c.54-.77,2.56-.35,3.49-.43Z"/>
        <path class="cls-1" d="M573.58,94.74v4.61s-3.18-.05-3.18-.05c-.97-3.54-1.11-5.12,3.18-4.56Z"/>
        <path class="cls-1" d="M533.92,28.79v14.76c-5.13,1.04-10.5.32-15.68,0v-13.61c0-.14-.64-.65-.46-1.15,5.42.06,10.74-.9,16.14,0ZM530.69,32.01h-9.22v8.07l.69.69h8.53v-8.76Z"/>
        <path class="cls-1" d="M518.24,87.13c-.02-.19-.64-.63-.46-1.15l16.14-.47v15.22h-15.68c-.36-4.32.49-9.38,0-13.61ZM530,88.74h-8.3c-1.18,0-.25,2.42-.23,3,.06,1.92-.03,3.85,0,5.76,1.68-.56,8.87.91,9.49.02.96-1.4-.58-6.17-.33-8.03l-.62-.76Z"/>
        <path class="cls-1" d="M592.95,28.79c-.32,3.01-.51,5.97-.49,9.02.02,2.11,1.12,4.07-.04,6.14l-15.16-.39c.2-2.31-1.35-14.1-.03-15.02l15.71.26ZM589.72,32.01h-9.69v7.61c0,.15.61.7.46,1.15h9.22v-8.76Z"/>
        <path class="cls-1" d="M367.12,262.46c-5.57-5.31,6.22-10.15,7.19-4.19.72,4.42-4.2,7.05-7.19,4.19Z"/>
        <path class="cls-1" d="M418.48,364.65c8.07-1.84,10.17,9.97,2.09,10.88-6.78.77-7.4-9.67-2.09-10.88Z"/>
        <path class="cls-1" d="M588.68,364.67c6.1-1.62,9.74,9.01,3.01,10.39-7.37,1.51-8.69-8.89-3.01-10.39Z"/>
        <path class="cls-1" d="M393.11,364.65c7.17-2.15,10.05,9.39,2.55,10.42-6.8.94-7.09-9.06-2.55-10.42Z"/>
        <path class="cls-1" d="M565.14,364.65c5.7-1.31,10.52,6.05,5.18,9.79-7.48,5.24-12.51-8.09-5.18-9.79Z"/>
        <path class="cls-1" d="M369.6,364.65c4.91-.5,7.66,7.53,2.31,9.7-7.88,3.2-9.49-8.97-2.31-9.7Z"/>
        <path class="cls-1" d="M368.68,294.99c5.18-1.05,8.45,5.93,3.31,8.87-5.83,3.34-9.33-7.66-3.31-8.87Z"/>
        <path class="cls-1" d="M368.67,226.28c3.7-.82,7.38,3.3,5.39,6.79-3.14,5.51-11.38.86-7.96-4.74.53-.86,1.57-1.83,2.57-2.05Z"/>
        <path class="cls-1" d="M372.79,274.31c3.45,3.29.8,8.51-3.65,7.6-.8-.16-3.04-2.03-3.33-2.7-1.78-4.17,3.62-8.1,6.98-4.91Z"/>
        <path class="cls-1" d="M368.2,204.61c6.29-1.9,9.68,8.48,2.21,8.71-6.09.19-6.02-7.56-2.21-8.71Z"/>
        <path class="cls-1" d="M366.64,316.73c3.88-4.39,10.29,1.28,6.78,5.63-3.8,4.72-10.56-1.37-6.78-5.63Z"/>
        <path class="cls-1" d="M369.14,185.22c5.32-1.09,7.7,7.41,2.09,8.58-5.98,1.24-7.56-7.45-2.09-8.58Z"/>
        <path class="cls-1" d="M592.29,297.69c2.2-.69,3.75,4.85,1.26,5.47s-3.07-4.91-1.26-5.47Z"/>
        <path class="cls-1" d="M592.53,205.48c2.26-1.51,4.15,4.2,1.48,4.96-3.12.88-1.95-4.65-1.48-4.96Z"/>
        <path class="cls-1" d="M592.31,316.62c3.07-1,3.21,4.7,1.27,5.01-1.69.27-3.07-4.1-1.27-5.01Z"/>
        <path class="cls-1" d="M592.78,225.76c2.19-.64,3.27,4.3,1.29,5.49-2.09.66-3.54-4.45-1.29-5.49Z"/>
        <path class="cls-1" d="M592.76,243.27c2.34-.73,2.96,4.61.83,5.5-2.26-.73-2.5-4.04-.83-5.5Z"/>
        <path class="cls-1" d="M594.75,339.14h-1.51s-.68-.71-.68-.71c-1.2-7.02,4.19-4.16,2.2.71Z"/>
        <path class="cls-1" d="M594.33,264.47c-2.76.16-2.66-2.54-1.8-4.56,3.22-.62,2.36,2.57,1.8,4.56Z"/>
        <path class="cls-1" d="M594.22,277.04c.96.96.46,2.94-.12,4.03-4.52,1.8-3.07-7.23.12-4.03Z"/>
        <path class="cls-1" d="M584.65,243.72v2.3s-2.77,0-2.77,0c-.24-1.77,1.19-2.55,2.77-2.3Z"/>
        <path class="cls-1" d="M592.77,187.95l1.6.16c.97.69.66,4.41-1.19,4.43-1.7,0-1.55-4.22-.41-4.59Z"/>
        <path class="cls-1" d="M584.18,188.37l.28,2.79-3.03.43c-.07-1.58.95-3.49,2.76-3.22Z"/>
        <path d="M537.94,186.13c4.96-1.32,6.29,7.88.81,8.69-3.1-.85-4.02-7.83-.81-8.69ZM540.79,191.09c.68-.95-.54-2.44-1.58-2.7-1.21,1.08-1.59,2.36.08,3.11.25.05,1.45-.33,1.5-.41Z"/>
        <path d="M540.37,296.75c-3.07.46-2.83,5.68.46,4.16-.29,6.43-5.45,1.84-4.59-2.97.71-3.94,5.08-2.52,4.13-1.19Z"/>
        <path d="M541.76,209.59c-1.68,3.3-5.34,2.99-5.53-.92,2.14.31,3.19,1.84,5.53.92Z"/>
        <path d="M462.82,164.91c.32.75.61,1.67.58,2.49-.03.99-1.19.36-.97,1.36,4.43,3.54-3.01,5.45-3.66,1.36-.54-3.37.03-6.18,4.05-5.21Z"/>
        <path d="M478.04,165.38c.52.32,1.97,5.34,1.43,5.9l-4.62.28c-1.66-2.1.28-7.98,3.19-6.18Z"/>
        <path d="M491.88,165.37l.33,5.96c-.64.89-2.97.36-3.89-.1-.27-2.26-.17-4.32.92-6.33l2.65.47Z"/>
        <path d="M482.26,165.31l3.49.43c.16,3.12,2.24,7.65-2.8,5.57l-.69-6Z"/>
        <path d="M471.65,165.31c.69,1.93-1.07,1.87-1.32,2.59-.33.97.68,5.06-1.68,4.32-1.22-.38-.46-3.52-.76-4.54l-1.78-1.21c1.26-1.87,3.6-1,5.53-1.16Z"/>
        <path d="M494.72,171.28l-.03-5.67,2.01-.71c2.22.52,2.9,9.04-1.98,6.38Z"/>
        <path d="M454.17,169.89l1.32.04-.42,2.1-3.18-.33c-1.59-5.1,2.45-10.72,2.28-1.8Z"/>
        <path d="M557.78,61.65c.9.95.94,5.34-.08,6.37-1.6,1.6-6.86,1.53-7.53-1.28-1.21-5.05,4.75-8.15,7.62-5.09Z"/>
        <path d="M578.55,87.71c-4.88,2.99-6.07-6-1.04-5.46,2.69.29,1.32,3.52,1.04,5.46Z"/>
        <polygon points="530.69 32.01 530.69 40.78 522.16 40.78 521.46 40.09 521.46 32.01 530.69 32.01"/>
        <path d="M530,88.74l.62.76c-.25,1.86,1.3,6.63.33,8.03-.61.89-7.81-.58-9.49-.02-.03-1.91.06-3.84,0-5.76-.02-.59-.95-3,.23-3h8.3Z"/>
        <path d="M589.72,32.01v8.76h-9.22c.15-.45-.46-1-.46-1.15v-7.61h9.69Z"/>
        <path class="cls-1" d="M540.79,191.09c-.06.08-1.25.46-1.5.41-1.66-.74-1.29-2.03-.08-3.11,1.04.26,2.26,1.75,1.58,2.7Z"/>
      </g>
    </g>
    <path id="icon-logo-adler_Wappen" data-name="icon-logo-adler Wappen" d="M95.06,55.8c.52-1.55.52-3.1.52-4.65v-3.1c13.43-.52,25.32-9.82,25.32-20.67-.52-4.65-2.58-9.3-5.68-12.4.52,0,1.03-.52,1.55-.52,4.13,4.13,7.23,9.3,7.23,15.5-.52,12.92-13.43,25.83-28.93,25.83h0ZM81.63,9.3c-.52-1.55-.52-2.58-1.55-4.13,0-1.55.52-2.58,2.58-1.55-1.55,1.55-.52,3.62-.52,3.62,0,0,2.58-1.03,2.07-2.58,3.62.52,1.03,5.68-2.58,4.65h0ZM78.53,16.02c-.52-2.07-1.55-4.13-2.58-5.68s-3.62-3.1-5.68-3.1c-1.55,0-3.1.52-4.13,1.03-1.03-1.03-1.55-2.58-1.55-3.62s1.55-2.07,4.65-2.07c7.23,0,11.37,3.1,11.37,8.27-1.03,2.07-1.55,3.62-2.07,5.17h0ZM96.1,105.91c.52,0,1.03,0,1.55.52,2.58,5.68,6.2,11.37,10.33,16.02h0c3.62-.52,7.23-1.03,10.85-1.03h0c.52,0,1.03,0,1.55.52.52.52.52,1.03.52,1.55,0,1.55-.52,2.58-1.03,3.62-2.07-1.55-4.65-2.58-7.23-2.58-1.03,0-2.07.52-3.1.52h-1.03l2.07,2.07c3.62,3.62,6.2,6.2,6.2,8.27-.52,1.55-1.03,2.58-2.07,3.62-1.03-4.13-3.62-8.27-7.23-10.85l-.52-.52v5.17c0,6.2-.52,7.23-3.1,7.23q-.52,0-1.55-.52c1.55-2.07,2.07-4.65,1.55-7.23v-3.1c0-1.03,0-2.58.52-3.62v-.52h-.52c-1.55-.52-3.1-.52-4.65-.52-2.58-.52-5.17.52-7.23,1.55-1.03-.52-1.55-2.07-2.07-3.62,0-1.55,1.03-1.55,2.07-1.55.52,0,1.55,0,1.55.52,2.58.52,5.17.52,7.75.52h.52v-.52c-2.58-5.17-5.17-9.3-8.78-13.43,1.55-1.03,1.55-2.07,3.1-2.07h0ZM54.76,121.93h0c2.58.52,5.17,0,8.27-.52.52,0,1.55,0,1.55-.52,1.03,0,2.07,0,2.07,1.55-.52,1.55-1.03,2.58-2.07,3.62-2.07-1.55-4.13-2.07-7.23-1.55-1.55,0-3.1.52-4.65.52h-1.03v.52c.52,1.03.52,2.58.52,3.62v3.1c-.52,2.58.52,5.17,1.55,7.23-.52,0-.52.52-1.55.52-2.58,0-3.1-1.03-3.1-7.23v-5.17l-.52.52c-3.62,2.58-6.2,6.2-7.23,10.85-1.03-.52-2.07-2.07-2.07-3.62,0-2.07,2.58-4.65,6.2-8.27l2.07-2.07.52-.52h0c-1.03-.52-2.07-.52-3.1-1.03-2.58-.52-5.17.52-7.23,2.58-1.03-1.03-1.55-2.58-1.55-3.62,0-.52,0-1.03.52-1.55q.52-.52,1.55-.52h0c3.62,0,7.23.52,10.85,1.03h0c4.13-5.17,7.23-10.33,10.33-16.02.52-.52,1.03-.52,1.55-.52,1.55,0,2.07,1.03,2.58,2.58-3.62,4.65-6.72,9.3-8.78,14.47h0ZM33.58,29.45c.52-6.2,3.1-11.37,7.23-15.5.52,0,1.03.52,1.55.52-3.62,3.62-5.17,7.75-5.68,12.4,0,11.37,11.88,20.67,25.83,20.67v3.1c0,1.55,0,3.1.52,4.65-15.5.52-29.45-12.4-29.45-25.83h0ZM136.91,53.21c6.72,10.85,12.4,10.85,20.67,10.85-5.17-4.13-9.82-9.3-13.43-14.98l-12.4-20.15c-1.55-6.2-4.13-11.88-9.3-16.53,1.55-.52,2.58-1.03,3.62-2.07-8.27,0-16.53-4.13-20.67-4.13-2.58-.52-4.13,1.55-4.65,3.62v.52c.52,2.58,2.58,5.17,7.75,5.17,1.55,0,2.58,0,4.13-.52,2.58,3.62,4.13,7.23,4.65,11.88,0,8.78-10.33,16.02-21.18,16.02h-1.55c-1.03-2.07-4.13-5.68-4.13-10.33,0-7.23,4.65-12.92,4.65-19.63,0-3.1-1.03-5.68-3.1-8.27,1.55-1.03,2.58-2.58,3.1-3.62-1.03.52-2.07.52-3.1.52-5.17,0-9.3-1.55-13.43-1.55-2.58,0-3.1.52-3.1,1.55v.52c-1.03-.52-1.55-.52-2.58-.52-1.55-.52-2.58-.52-3.62-.52-5.17,0-6.72,2.07-6.72,3.62.52,2.58,1.55,4.13,2.58,6.2,1.55-1.03,3.62-1.55,5.17-1.55,2.58,0,5.17,2.58,6.2,5.17-1.55.52-2.58.52-4.13.52-3.1,0-6.2-.52-8.78-1.55h-.52c0,.52,1.55,2.58,4.13,3.62,3.1,1.03,6.2,1.55,9.82,2.07-1.03.52-1.55,1.55-2.58,1.55h-.52c-3.62-.52-6.2-1.55-9.3-2.58,0,0-.52,0-.52.52,0,1.55,4.65,6.2,9.3,7.23-4.13,4.65-8.27,10.33-10.33,16.53h-1.55c-10.85,0-21.18-6.72-21.18-16.02.52-4.13,2.07-8.27,4.65-11.88,1.55.52,2.58.52,4.13.52,4.65,0,7.23-2.58,7.75-5.17,0-2.58-2.07-4.13-4.13-4.13h-1.03c-3.62.52-11.88,4.65-20.15,4.65,1.03.52,2.58,1.55,3.62,2.07-4.65,4.65-7.75,10.33-9.3,16.02l-12.4,20.67c-3.1,5.68-8.27,10.33-13.43,14.98,8.27,0,13.43.52,20.67-10.85l6.2-10.33c.52,1.55,1.03,2.58,1.55,4.13l-12.92,20.67c-3.62,5.68-8.27,10.85-13.43,14.98,8.27,0,13.43.52,20.67-10.85l11.37-18.08c.52,1.03,1.55,1.55,2.58,2.58l-15.5,24.8c-3.62,5.68-8.27,10.85-13.43,14.98,8.27,0,13.43.52,20.67-10.85l14.98-23.25c1.03.52,2.07,1.55,3.1,1.55l-18.6,29.45c-3.62,5.68-8.27,10.85-13.43,14.98,8.27,0,13.43.52,20.67-10.85l19.12-30.48c1.03.52,2.58,1.03,3.62,1.55l-21.7,34.62c-3.62,5.68-8.27,10.85-13.43,14.98,8.27,0,13.43.52,20.67-10.85l22.73-36.68h.52c.52,1.55,1.03,3.62,1.03,5.68,0,11.37-7.75,21.7-17.05,29.45.52.52,1.55.52,2.58.52,1.55,0,2.58,0,4.13-.52-2.58,5.17-5.17,9.82-9.3,13.95-3.62-.52-6.72-1.03-10.33-1.03-3.1,0-3.62,1.55-3.62,3.62,0,2.58,1.03,4.65,2.58,6.2.52-1.55,1.55-3.62,7.23-3.62h.52c-1.55,1.55-6.72,5.68-6.72,9.3.52,3.1,2.58,5.17,5.17,5.17,0-.52-.52-1.55,0-1.55.52-3.1,2.07-5.68,4.13-8.27v1.55c0,6.2.52,9.3,4.65,9.3,1.55,0,2.58-.52,3.62-1.55-2.07-2.07-3.62-5.17-2.58-7.75v-5.68c1.03,0,2.07-.52,3.1-.52,0,0,5.68-.52,7.23,2.58,1.55-1.55,3.62-3.62,3.62-5.68,0-1.55-.52-3.1-3.62-3.1-1.03,0-4.65.52-7.23.52,2.07-3.62,4.13-7.23,7.23-10.33.52,1.55,1.55,3.1,2.58,4.13.52-5.17,2.58-10.33,5.17-13.95.52,4.13,1.03,8.27,1.03,12.4,0,15.5-3.62,27.38-11.88,29.45,1.03,2.07,3.62,3.62,5.17,3.62,3.1,0,4.13-3.62,6.2-6.2,1.03,2.58,3.1,8.27,5.17,8.27,2.58,0,4.65-5.68,5.17-8.27,1.55,3.1,3.62,6.2,6.2,6.2s4.13-1.55,5.17-3.62c-8.27-2.58-11.88-13.95-11.88-29.45,0-4.13.52-8.27,1.03-12.4,3.1,4.13,4.65,9.3,5.17,13.95,1.55-1.03,2.58-2.58,2.58-4.13,2.58,3.62,5.17,6.72,7.23,10.33-3.1,0-6.2-.52-7.23-.52-3.1,0-3.62,1.55-3.62,3.1,0,2.07,2.58,4.13,3.62,5.68,1.55-3.1,7.23-2.58,7.23-2.58,1.03,0,2.07,0,3.1.52v5.68c.52,3.1-.52,5.68-2.58,7.75,1.03,1.03,2.58,1.55,3.62,1.55,4.13,0,4.65-3.1,4.65-9.3v-1.55c2.58,2.07,3.62,5.17,4.13,8.27,0,.52,0,1.55-.52,1.55,3.1-.52,5.17-2.58,5.17-5.17,0-3.62-5.17-7.23-6.72-9.3h.52c5.17,0,6.72,1.55,7.23,3.62,1.55-1.55,2.58-3.62,2.58-6.2,0-1.55-.52-3.62-3.62-3.62-3.62,0-6.72.52-10.33,1.03-3.62-4.13-6.2-9.3-9.3-13.95,1.55.52,2.58.52,4.13.52,1.03,0,1.55,0,2.58-.52-9.3-7.75-17.05-18.08-17.05-29.45,0-2.07.52-3.62,1.03-5.68h.52l23.77,36.68c6.72,10.85,12.4,10.85,20.67,10.85-5.17-4.13-9.82-9.3-13.43-14.98l-21.7-34.62c1.03-.52,2.58-.52,3.62-1.55l19.12,30.48c6.72,10.85,12.4,10.85,20.67,10.85-5.17-4.13-9.82-9.3-13.43-14.98l-18.6-29.45c1.03-.52,2.07-1.55,3.1-1.55l14.98,24.28c6.72,10.85,12.4,10.85,20.67,10.85-5.17-4.13-9.82-9.3-13.43-14.98l-15.5-24.8c1.03-.52,1.55-1.55,2.58-2.58l11.37,18.08c6.72,10.85,12.4,10.85,20.67,10.85-5.17-4.13-9.82-9.3-13.43-14.98l-12.92-20.67c.52-1.55,1.55-2.58,1.55-4.13l10.33,9.3Z"/>
    <path id="icon-logo-flagge_gold" data-name="icon-logo-flagge gold" class="cls-3" d="M231.42,271.98h10.36v135.23h-23.83v-135.23h13.47Z"/>
    <path id="icon-logo-flagge_rot" data-name="icon-logo-flagge rot" class="cls-2" d="M231.42,136.24h10.36v135.74h-23.83v-135.74h13.47Z"/>
    <path id="icon-logo-flagge_schwarz" data-name="icon-logo-flagge schwarz" d="M241.78,2.05v135.23h-23.83V2.05h23.83Z"/>
  </g>
</svg>